<svg width="187" height="62" viewBox="0 0 187 62" fill="none" xmlns="http://www.w3.org/2000/svg">
<path d="M46.2081 30.2183C46.1671 26.6896 49.2831 24.9702 49.4334 24.8932C47.6704 22.4809 44.9371 22.1473 43.9804 22.1216C41.6844 21.8907 39.4567 23.4048 38.295 23.4048C37.106 23.4048 35.302 22.1345 33.3614 22.173C30.8604 22.2114 28.5233 23.5716 27.2523 25.6759C24.6147 29.9745 26.5827 36.2876 29.111 39.7649C30.382 41.4715 31.858 43.3705 33.7987 43.2935C35.6984 43.2165 36.409 42.1644 38.6914 42.1644C40.96 42.1644 41.6161 43.2935 43.5977 43.255C45.6341 43.2294 46.9187 41.5485 48.1351 39.829C49.5974 37.8787 50.1851 35.9539 50.2124 35.8641C50.1441 35.8513 46.2491 34.4527 46.2081 30.2183Z" fill="white"/>
<path d="M42.4773 19.8376C43.5023 18.6443 44.1993 17.0146 43.9943 15.3594C42.5183 15.4235 40.6733 16.3217 39.6073 17.4894C38.6643 18.5159 37.8306 20.2097 38.0493 21.8008C39.703 21.9163 41.4113 21.0181 42.4773 19.8376Z" fill="white"/>
<path d="M70.1656 38.9949H63.7013L62.1433 43.3063H59.41L65.5326 27.3696H68.3753L74.4979 43.3063H71.7099L70.1656 38.9949ZM64.371 37.006H69.4959L66.9676 30.0129H66.8993L64.371 37.006Z" fill="white"/>
<path d="M87.7407 37.4941C87.7407 41.0997 85.6771 43.4222 82.5748 43.4222C80.8119 43.4222 79.4179 42.678 78.6799 41.3948H78.6252V47.1433H76.0833V31.6814H78.5432V33.619H78.5842C79.2949 32.3743 80.7982 31.5659 82.5202 31.5659C85.6771 31.5659 87.7407 33.8884 87.7407 37.4941ZM85.1305 37.4941C85.1305 35.1459 83.8321 33.5933 81.8642 33.5933C79.9235 33.5933 78.6116 35.1716 78.6116 37.4941C78.6116 39.8294 79.9235 41.4077 81.8642 41.4077C83.8321 41.4077 85.1305 39.8679 85.1305 37.4941Z" fill="white"/>
<path d="M101.353 37.4941C101.353 41.0997 99.2896 43.4222 96.1872 43.4222C94.4242 43.4222 93.0302 42.678 92.2922 41.3948H92.2376V47.1433H89.7092V31.6814H92.1692V33.619H92.2102C92.9209 32.3743 94.4242 31.5659 96.1462 31.5659C99.2896 31.5659 101.353 33.8884 101.353 37.4941ZM98.7429 37.4941C98.7429 35.1459 97.4446 33.5933 95.4766 33.5933C93.5359 33.5933 92.2239 35.1716 92.2239 37.4941C92.2239 39.8294 93.5359 41.4077 95.4766 41.4077C97.4582 41.4077 98.7429 39.8679 98.7429 37.4941Z" fill="white"/>
<path d="M110.36 38.8666C110.551 40.4448 112.177 41.4842 114.419 41.4842C116.564 41.4842 118.095 40.4448 118.095 39.0205C118.095 37.7887 117.166 37.0445 114.965 36.5312L112.765 36.0308C109.649 35.3251 108.2 33.9521 108.2 31.7323C108.2 28.9863 110.756 27.1001 114.378 27.1001C117.958 27.1001 120.418 28.9863 120.5 31.7323H117.931C117.781 30.1412 116.373 29.1788 114.337 29.1788C112.3 29.1788 110.893 30.154 110.893 31.5655C110.893 32.6946 111.781 33.349 113.968 33.8623L115.84 34.2986C119.325 35.0684 120.774 36.3901 120.774 38.7126C120.774 41.6895 118.245 43.5629 114.227 43.5629C110.469 43.5629 107.927 41.7408 107.763 38.8537H110.36V38.8666Z" fill="white"/>
<path d="M126.266 28.9346V31.6805H128.617V33.5667H126.266V39.9696C126.266 40.9705 126.731 41.4324 127.77 41.4324C128.029 41.4324 128.439 41.3939 128.603 41.3811V43.2545C128.316 43.3186 127.756 43.37 127.196 43.37C124.695 43.37 123.711 42.4846 123.711 40.2391V33.5796H121.907V31.6933H123.711V28.9346H126.266Z" fill="white"/>
<path d="M129.971 37.4933C129.971 33.8364 132.267 31.5396 135.834 31.5396C139.415 31.5396 141.697 33.8364 141.697 37.4933C141.697 41.1631 139.428 43.4471 135.834 43.4471C132.253 43.4471 129.971 41.1631 129.971 37.4933ZM139.128 37.4933C139.128 34.9912 137.898 33.5028 135.847 33.5028C133.797 33.5028 132.567 34.9912 132.567 37.4933C132.567 40.0083 133.784 41.4839 135.847 41.4839C137.911 41.4839 139.128 40.0083 139.128 37.4933Z" fill="white"/>
<path d="M143.815 31.681H146.234V33.6571H146.289C146.671 32.3483 147.806 31.5527 149.268 31.5527C149.637 31.5527 149.938 31.6041 150.143 31.6426V33.8752C149.938 33.7982 149.5 33.7341 149.008 33.7341C147.368 33.7341 146.357 34.7734 146.357 36.403V43.2935H143.815V31.681Z" fill="white"/>
<path d="M161.84 39.8928C161.499 41.9972 159.312 43.4471 156.511 43.4471C152.916 43.4471 150.675 41.1888 150.675 37.5447C150.675 33.9005 152.916 31.5396 156.401 31.5396C159.818 31.5396 161.977 33.7466 161.977 37.2752V38.0964H153.244V38.2375C153.244 40.2264 154.57 41.5224 156.579 41.5224C157.987 41.5224 159.094 40.8937 159.435 39.8928H161.84ZM153.258 36.4155H159.449C159.394 34.6319 158.178 33.4643 156.415 33.4643C154.666 33.4771 153.395 34.6704 153.258 36.4155Z" fill="white"/>
<path d="M64.0561 15.3721C66.4751 15.3721 67.8964 16.7707 67.8964 19.1702C67.8964 21.621 66.4888 23.0196 64.0561 23.0196H61.104V15.3721H64.0561ZM62.375 21.9418H63.9057C65.6141 21.9418 66.5981 20.9409 66.5981 19.183C66.5981 17.4508 65.6004 16.4499 63.9057 16.4499H62.375V21.9418Z" fill="white"/>
<path d="M69.3179 20.133C69.3179 18.2724 70.4249 17.1304 72.2152 17.1304C74.0055 17.1304 75.1125 18.2596 75.1125 20.133C75.1125 22.0064 74.0055 23.1356 72.2152 23.1356C70.4249 23.1356 69.3179 22.0064 69.3179 20.133ZM73.8689 20.133C73.8689 18.8755 73.2675 18.1441 72.2152 18.1441C71.1629 18.1441 70.5615 18.8755 70.5615 20.133C70.5615 21.3905 71.1492 22.1219 72.2152 22.1219C73.2812 22.1219 73.8689 21.3905 73.8689 20.133Z" fill="white"/>
<path d="M82.8339 23.0325H81.5766L80.3056 18.7724H80.21L78.939 23.0325H77.6953L76.0007 17.2583H77.2307L78.3377 21.6723H78.4333L79.7043 17.2583H80.866L82.137 21.6723H82.2326L83.3259 17.2583H84.5423L82.8339 23.0325Z" fill="white"/>
<path d="M85.9503 17.2457H87.1257V18.1696H87.2214C87.522 17.528 88.137 17.1431 89.0527 17.1431C90.4194 17.1431 91.1847 17.913 91.1847 19.2859V23.0327H89.9684V19.5811C89.9684 18.6572 89.5447 18.1953 88.6427 18.1953C87.7407 18.1953 87.1667 18.7598 87.1667 19.658V23.0327H85.9503V17.2457Z" fill="white"/>
<path d="M93.1116 15H94.328V23.0325H93.1116V15Z" fill="white"/>
<path d="M96.0231 20.133C96.0231 18.2724 97.1301 17.1304 98.9204 17.1304C100.711 17.1304 101.818 18.2596 101.818 20.133C101.818 22.0064 100.711 23.1356 98.9204 23.1356C97.1165 23.1356 96.0231 22.0064 96.0231 20.133ZM100.574 20.133C100.574 18.8755 99.9727 18.1441 98.9204 18.1441C97.8681 18.1441 97.2668 18.8755 97.2668 20.133C97.2668 21.3905 97.8544 22.1219 98.9204 22.1219C99.9727 22.1219 100.574 21.3905 100.574 20.133Z" fill="white"/>
<path d="M103.102 21.3903C103.102 20.351 103.922 19.7479 105.384 19.6709L107.052 19.5811V19.0806C107.052 18.4647 106.628 18.1311 105.794 18.1311C105.111 18.1311 104.646 18.3621 104.51 18.7727H103.334C103.457 17.7846 104.455 17.1431 105.849 17.1431C107.393 17.1431 108.268 17.8616 108.268 19.0806V23.0328H107.093V22.2244H106.997C106.628 22.8018 105.958 23.1354 105.152 23.1354C103.963 23.1226 103.102 22.4553 103.102 21.3903ZM107.065 20.9027V20.4151L105.562 20.5049C104.715 20.5563 104.332 20.8257 104.332 21.339C104.332 21.8651 104.81 22.1602 105.466 22.1602C106.382 22.1602 107.065 21.6213 107.065 20.9027Z" fill="white"/>
<path d="M109.866 20.1326C109.866 18.3105 110.864 17.1557 112.422 17.1557C113.269 17.1557 113.98 17.5278 114.308 18.1694H114.404V15H115.62V23.0325H114.445V22.1215H114.349C113.98 22.7502 113.269 23.1352 112.422 23.1352C110.85 23.1223 109.866 21.9675 109.866 20.1326ZM111.124 20.1326C111.124 21.3644 111.739 22.0958 112.764 22.0958C113.789 22.0958 114.417 21.3516 114.417 20.1326C114.417 18.9264 113.775 18.1694 112.764 18.1694C111.739 18.1822 111.124 18.9264 111.124 20.1326Z" fill="white"/>
<path d="M120.636 20.133C120.636 18.2724 121.743 17.1304 123.533 17.1304C125.323 17.1304 126.43 18.2596 126.43 20.133C126.43 22.0064 125.323 23.1356 123.533 23.1356C121.743 23.1356 120.636 22.0064 120.636 20.133ZM125.187 20.133C125.187 18.8755 124.585 18.1441 123.533 18.1441C122.481 18.1441 121.879 18.8755 121.879 20.133C121.879 21.3905 122.467 22.1219 123.533 22.1219C124.585 22.1219 125.187 21.3905 125.187 20.133Z" fill="white"/>
<path d="M128.071 17.2457H129.246V18.1696H129.342C129.642 17.528 130.257 17.1431 131.173 17.1431C132.54 17.1431 133.305 17.913 133.305 19.2859V23.0327H132.089V19.5811C132.089 18.6572 131.665 18.1953 130.763 18.1953C129.861 18.1953 129.287 18.7598 129.287 19.658V23.0327H128.071V17.2457Z" fill="white"/>
<path d="M140.165 15.8081V17.2709H141.505V18.2332H140.165V21.2101C140.165 21.8132 140.425 22.0827 141.04 22.0827C141.231 22.0827 141.327 22.0698 141.505 22.057V23.0065C141.313 23.0322 141.081 23.0707 140.849 23.0707C139.496 23.0707 138.963 22.6216 138.963 21.5052V18.2461H137.992V17.2837H138.963V15.8081H140.165Z" fill="white"/>
<path d="M143.145 15H144.347V18.1822H144.443C144.744 17.5406 145.386 17.1429 146.315 17.1429C147.627 17.1429 148.434 17.9256 148.434 19.2985V23.0325H147.217V19.5808C147.217 18.657 146.766 18.195 145.905 18.195C144.908 18.195 144.361 18.7853 144.361 19.6578V23.0325H143.145V15Z" fill="white"/>
<path d="M155.526 21.4673C155.253 22.5067 154.269 23.1354 152.862 23.1354C151.099 23.1354 150.019 22.0062 150.019 20.1585C150.019 18.3107 151.126 17.1431 152.862 17.1431C154.57 17.1431 155.608 18.2466 155.608 20.0558V20.4536H151.263V20.5178C151.304 21.5315 151.932 22.173 152.903 22.173C153.64 22.173 154.146 21.9292 154.365 21.4673H155.526ZM151.263 19.6067H154.365C154.337 18.6957 153.75 18.1054 152.848 18.1054C151.946 18.1054 151.331 18.7085 151.263 19.6067Z" fill="white"/>
<rect x="1" y="1" width="185" height="60" rx="8" stroke="white"/>
</svg>
