<svg width="187" height="62" viewBox="0 0 187 62" fill="none" xmlns="http://www.w3.org/2000/svg">
<path d="M65.1809 18.3247C65.1809 19.4025 64.8392 20.2622 64.1559 20.891C63.3906 21.648 62.3792 22.033 61.1493 22.033C59.9603 22.033 58.9626 21.648 58.1289 20.8782C57.2953 20.1083 56.8853 19.1459 56.8853 18.0167C56.8853 16.8747 57.2953 15.9252 58.1289 15.1553C58.9626 14.3854 59.9603 14.0005 61.1493 14.0005C61.7369 14.0005 62.2972 14.1031 62.8302 14.3213C63.3632 14.5394 63.7869 14.8217 64.1149 15.181L63.3906 15.8611C62.8439 15.258 62.1059 14.95 61.1493 14.95C60.2883 14.95 59.5366 15.2323 58.9079 15.8097C58.2793 16.3743 57.9649 17.1185 57.9649 18.0296C57.9649 18.9406 58.2793 19.6848 58.9079 20.2494C59.5366 20.814 60.2883 21.1091 61.1493 21.1091C62.0649 21.1091 62.8302 20.8268 63.4452 20.2494C63.8416 19.8773 64.0739 19.3512 64.1286 18.684H61.1493V17.7473H65.1262C65.1536 17.9526 65.1809 18.1451 65.1809 18.3247Z" fill="white" stroke="white" stroke-width="0.256629" stroke-miterlimit="10"/>
<path d="M71.481 15.117H67.7499V17.555H71.112V18.4789H67.7499V20.9168H71.481V21.8664H66.6976V14.1675H71.481V15.117Z" fill="white" stroke="white" stroke-width="0.256629" stroke-miterlimit="10"/>
<path d="M75.9224 21.8664H74.8701V15.117H72.5741V14.1675H78.2047V15.117H75.9087V21.8664H75.9224Z" fill="white" stroke="white" stroke-width="0.256629" stroke-miterlimit="10"/>
<path d="M82.2908 21.8664V14.1675H83.3431V21.8664H82.2908Z" fill="white" stroke="white" stroke-width="0.256629" stroke-miterlimit="10"/>
<path d="M88.0181 21.8664H86.9657V15.117H84.6697V14.1675H90.3004V15.117H88.0044V21.8664H88.0181Z" fill="white" stroke="white" stroke-width="0.256629" stroke-miterlimit="10"/>
<path d="M100.973 20.8648C100.167 21.6476 99.1694 22.0325 97.9667 22.0325C96.7641 22.0325 95.7664 21.6476 94.9601 20.8648C94.1537 20.0821 93.7574 19.1326 93.7574 18.0163C93.7574 16.8999 94.1537 15.9376 94.9601 15.1677C95.7664 14.3849 96.7641 14 97.9667 14C99.1557 14 100.153 14.3849 100.973 15.1677C101.78 15.9504 102.19 16.8999 102.19 18.0163C102.176 19.1454 101.78 20.095 100.973 20.8648ZM95.7391 20.2233C96.3404 20.8007 97.092 21.083 97.9667 21.083C98.8414 21.083 99.593 20.8007 100.194 20.2233C100.796 19.6459 101.11 18.9145 101.11 18.0163C101.11 17.118 100.809 16.3867 100.194 15.8092C99.593 15.2318 98.8414 14.9367 97.9667 14.9367C97.092 14.9367 96.3404 15.219 95.7391 15.7964C95.1377 16.3867 94.8234 17.118 94.8234 18.0163C94.8234 18.9145 95.1377 19.6459 95.7391 20.2233Z" fill="white" stroke="white" stroke-width="0.256629" stroke-miterlimit="10"/>
<path d="M103.666 21.8664V14.1675H104.951L108.942 20.1598H108.983L108.942 18.6713V14.1675H109.994V21.8664H108.901L104.732 15.5918H104.691L104.732 17.0802V21.8664H103.666Z" fill="white" stroke="white" stroke-width="0.256629" stroke-miterlimit="10"/>
<path d="M93.498 33.0928C90.2863 33.0928 87.6623 35.3896 87.6623 38.5462C87.6623 41.6899 90.2863 43.9996 93.498 43.9996C96.7096 43.9996 99.3336 41.6899 99.3336 38.5462C99.3336 35.3896 96.7096 33.0928 93.498 33.0928ZM93.498 41.8567C91.735 41.8567 90.218 40.4966 90.218 38.5462C90.218 36.583 91.735 35.2357 93.498 35.2357C95.261 35.2357 96.778 36.583 96.778 38.5462C96.778 40.4966 95.2473 41.8567 93.498 41.8567ZM80.7607 33.0928C77.549 33.0928 74.925 35.3896 74.925 38.5462C74.925 41.6899 77.549 43.9996 80.7607 43.9996C83.9723 43.9996 86.5963 41.6899 86.5963 38.5462C86.5963 35.3896 83.9723 33.0928 80.7607 33.0928ZM80.7607 41.8567C78.9977 41.8567 77.4807 40.4966 77.4807 38.5462C77.4807 36.583 78.9977 35.2357 80.7607 35.2357C82.5237 35.2357 84.0407 36.583 84.0407 38.5462C84.0407 40.4966 82.5237 41.8567 80.7607 41.8567ZM65.6181 34.7737V37.0834H71.522C71.3444 38.3794 70.8797 39.3417 70.1827 39.9961C69.3217 40.8045 67.9824 41.6899 65.6317 41.6899C61.9964 41.6899 59.1537 38.944 59.1537 35.5308C59.1537 32.1176 61.9964 29.3717 65.6317 29.3717C67.5861 29.3717 69.0211 30.0902 70.0734 31.0269L71.809 29.3973C70.333 28.0757 68.3787 27.062 65.6181 27.062C60.6434 27.062 56.4614 30.8601 56.4614 35.5436C56.4614 40.2143 60.6434 44.0252 65.6181 44.0252C68.3104 44.0252 70.333 43.204 71.9184 41.6514C73.5447 40.1245 74.0504 37.9688 74.0504 36.2365C74.0504 35.6976 74.0094 35.1972 73.9137 34.7866H65.6181V34.7737ZM127.542 36.5701C127.063 35.3511 125.587 33.0928 122.567 33.0928C119.574 33.0928 117.087 35.2998 117.087 38.5462C117.087 41.6001 119.547 43.9996 122.854 43.9996C125.519 43.9996 127.063 42.4726 127.692 41.5872L125.71 40.3426C125.054 41.2536 124.152 41.8567 122.854 41.8567C121.556 41.8567 120.626 41.2921 120.039 40.2015L127.815 37.1861L127.542 36.5701ZM119.615 38.3922C119.547 36.2878 121.351 35.21 122.649 35.21C123.66 35.21 124.521 35.6848 124.808 36.3648L119.615 38.3922ZM113.301 43.6788H115.857V27.6394H113.301V43.6788ZM109.119 34.3118H109.023C108.449 33.6702 107.356 33.0928 105.962 33.0928C103.051 33.0928 100.386 35.4923 100.386 38.5719C100.386 41.6257 103.051 44.0124 105.962 44.0124C107.342 44.0124 108.449 43.435 109.023 42.7677H109.105V43.5505C109.105 45.642 107.916 46.7583 106.003 46.7583C104.445 46.7583 103.475 45.7062 103.078 44.8208L100.851 45.6933C101.493 47.1433 103.188 48.914 106.003 48.914C108.996 48.914 111.524 47.2588 111.524 43.2297V33.4264H109.105V34.3118H109.119ZM106.181 41.8567C104.418 41.8567 102.942 40.4709 102.942 38.5719C102.942 36.6471 104.418 35.2485 106.181 35.2485C107.916 35.2485 109.283 36.66 109.283 38.5719C109.297 40.4709 107.93 41.8567 106.181 41.8567ZM139.513 27.6394H133.405V43.6788H135.96V37.5967H139.527C142.356 37.5967 145.13 35.6719 145.13 32.618C145.13 29.5642 142.329 27.6394 139.513 27.6394ZM139.568 35.364H135.947V29.8593H139.568C141.481 29.8593 142.561 31.3477 142.561 32.6052C142.561 33.8627 141.481 35.364 139.568 35.364ZM155.339 33.0671C153.494 33.0671 151.581 33.837 150.788 35.518L153.057 36.4033C153.535 35.518 154.437 35.2228 155.38 35.2228C156.706 35.2228 158.045 35.9671 158.059 37.2887V37.4555C157.594 37.2117 156.61 36.8396 155.394 36.8396C152.948 36.8396 150.474 38.0971 150.474 40.4452C150.474 42.5881 152.469 43.9739 154.711 43.9739C156.419 43.9739 157.376 43.2553 157.963 42.4085H158.045V43.6531H160.505V37.5068C160.519 34.6582 158.25 33.0671 155.339 33.0671ZM155.025 41.8567C154.191 41.8567 153.03 41.4589 153.03 40.4966C153.03 39.2648 154.478 38.79 155.736 38.79C156.856 38.79 157.389 39.021 158.059 39.3289C157.868 40.8045 156.501 41.8567 155.025 41.8567ZM169.484 33.4136L166.56 40.3683H166.478L163.444 33.4136H160.697L165.248 43.1399L162.651 48.5419H165.316L172.327 33.4136H169.484ZM146.524 43.6788H149.08V27.6394H146.524V43.6788Z" fill="white"/>
<path d="M14.6417 14.8594C14.2453 15.2571 14.013 15.873 14.013 16.6558V45.039C14.013 45.8346 14.2453 46.4505 14.6417 46.8354L14.7373 46.9252L31.6703 31.0399V30.8474V30.6549L14.7373 14.7695L14.6417 14.8594Z" fill="url(#paint0_linear_736_5806)"/>
<path d="M37.3165 36.3393L31.6721 31.0398V30.8474V30.6549L37.3165 25.3555L37.4395 25.4196L44.1225 28.9868C46.0359 30.0005 46.0359 31.6686 44.1225 32.6951L37.4395 36.2623L37.3165 36.3393Z" fill="url(#paint1_linear_736_5806)"/>
<path d="M37.4387 36.2754L31.6714 30.8477L14.6428 46.8357C15.2714 47.4644 16.3101 47.5414 17.4854 46.9127L37.4387 36.2754Z" fill="url(#paint2_linear_736_5806)"/>
<path d="M37.4382 25.4326L17.4713 14.7825C16.296 14.1537 15.2573 14.2307 14.6287 14.8595L31.6709 30.8475L37.4382 25.4326Z" fill="url(#paint3_linear_736_5806)"/>
<path opacity="0.2" d="M37.3145 36.147L17.4706 46.7329C16.3636 47.3232 15.3659 47.2847 14.7373 46.7458L14.6416 46.8356L14.7373 46.9254C15.3796 47.4643 16.3636 47.5028 17.4706 46.9126L37.4375 36.2625L37.3145 36.147Z" fill="black"/>
<path opacity="0.12" d="M14.6406 46.6558C14.2442 46.258 14.0118 45.6421 14.0118 44.8594V45.0518C14.0118 45.8474 14.2442 46.4633 14.6406 46.8482L14.7362 46.7584L14.6406 46.6558Z" fill="black"/>
<path opacity="0.12" d="M44.122 32.5157L37.3023 36.147L37.4253 36.2625L44.1083 32.6954C45.065 32.1821 45.5433 31.5149 45.5433 30.8477C45.475 31.4507 44.9966 32.0538 44.122 32.5157Z" fill="black"/>
<path opacity="0.25" d="M17.4713 14.9631L44.1214 29.1804C44.9824 29.6423 45.4744 30.2326 45.5564 30.8485C45.5564 30.1812 45.0781 29.5012 44.1214 29.0007L17.4713 14.7835C15.558 13.7698 14 14.6167 14 16.6697V16.8622C14 14.7963 15.5717 13.9494 17.4713 14.9631Z" fill="white"/>
<rect x="1" y="1" width="185" height="60" rx="8" stroke="white"/>
<defs>
<linearGradient id="paint0_linear_736_5806" x1="30.1665" y1="16.3604" x2="8.67489" y2="39.2508" gradientUnits="userSpaceOnUse">
<stop stop-color="#00A0FF"/>
<stop offset="0.00657445" stop-color="#00A1FF"/>
<stop offset="0.2601" stop-color="#00BEFF"/>
<stop offset="0.5122" stop-color="#00D2FF"/>
<stop offset="0.7604" stop-color="#00DFFF"/>
<stop offset="1" stop-color="#00E3FF"/>
</linearGradient>
<linearGradient id="paint1_linear_736_5806" x1="46.6158" y1="30.8493" x2="13.5464" y2="30.8493" gradientUnits="userSpaceOnUse">
<stop stop-color="#FFE000"/>
<stop offset="0.4087" stop-color="#FFBD00"/>
<stop offset="0.7754" stop-color="#FFA500"/>
<stop offset="1" stop-color="#FF9C00"/>
</linearGradient>
<linearGradient id="paint2_linear_736_5806" x1="34.3048" y1="33.794" x2="5.16048" y2="64.8352" gradientUnits="userSpaceOnUse">
<stop stop-color="#FF3A44"/>
<stop offset="1" stop-color="#C31162"/>
</linearGradient>
<linearGradient id="paint3_linear_736_5806" x1="10.3472" y1="5.41076" x2="23.3615" y2="19.2719" gradientUnits="userSpaceOnUse">
<stop stop-color="#32A071"/>
<stop offset="0.0685" stop-color="#2DA771"/>
<stop offset="0.4762" stop-color="#15CF74"/>
<stop offset="0.8009" stop-color="#06E775"/>
<stop offset="1" stop-color="#00F076"/>
</linearGradient>
</defs>
</svg>
