<svg width="285" height="113" viewBox="0 0 285 113" fill="none" xmlns="http://www.w3.org/2000/svg">
<rect width="285" height="113" rx="18.2417" fill="black"/>
<rect x="0.380035" y="0.380035" width="284.24" height="112.24" rx="17.8616" stroke="white" stroke-opacity="0.5" stroke-width="0.76007"/>
<path d="M40.5074 34.7891V51H37.7128L30.4424 39.3874V51H27.6478V34.7891H30.4424L37.7351 46.424V34.7891H40.5074ZM43.057 45.1102V44.8541C43.057 43.9857 43.1832 43.1803 43.4356 42.4381C43.688 41.6884 44.0517 41.0389 44.5267 40.4897C45.0092 39.933 45.5956 39.5025 46.2859 39.1981C46.9836 38.8864 47.7704 38.7305 48.6462 38.7305C49.5295 38.7305 50.3163 38.8864 51.0066 39.1981C51.7043 39.5025 52.2944 39.933 52.7769 40.4897C53.2593 41.0389 53.6268 41.6884 53.8791 42.4381C54.1315 43.1803 54.2577 43.9857 54.2577 44.8541V45.1102C54.2577 45.9786 54.1315 46.784 53.8791 47.5262C53.6268 48.2685 53.2593 48.918 52.7769 49.4747C52.2944 50.0239 51.708 50.4544 51.0177 50.7662C50.3274 51.0705 49.5444 51.2227 48.6685 51.2227C47.7852 51.2227 46.9947 51.0705 46.297 50.7662C45.6067 50.4544 45.0203 50.0239 44.5378 49.4747C44.0554 48.918 43.688 48.2685 43.4356 47.5262C43.1832 46.784 43.057 45.9786 43.057 45.1102ZM45.7403 44.8541V45.1102C45.7403 45.652 45.796 46.1642 45.9073 46.6467C46.0186 47.1291 46.1931 47.5522 46.4306 47.9159C46.6681 48.2796 46.9724 48.5654 47.3436 48.7732C47.7147 48.9811 48.1563 49.085 48.6685 49.085C49.1658 49.085 49.5963 48.9811 49.96 48.7732C50.3311 48.5654 50.6355 48.2796 50.873 47.9159C51.1105 47.5522 51.2849 47.1291 51.3963 46.6467C51.515 46.1642 51.5744 45.652 51.5744 45.1102V44.8541C51.5744 44.3197 51.515 43.815 51.3963 43.3399C51.2849 42.8575 51.1068 42.4307 50.8619 42.0595C50.6243 41.6884 50.32 41.3989 49.9489 41.1911C49.5852 40.9758 49.151 40.8682 48.6462 40.8682C48.1415 40.8682 47.7036 40.9758 47.3324 41.1911C46.9687 41.3989 46.6681 41.6884 46.4306 42.0595C46.1931 42.4307 46.0186 42.8575 45.9073 43.3399C45.796 43.815 45.7403 44.3197 45.7403 44.8541ZM64.8682 41.4026V51H62.185V38.9532H64.7124L64.8682 41.4026ZM64.434 44.5312L63.521 44.5201C63.521 43.6888 63.625 42.9205 63.8328 42.2154C64.0406 41.5103 64.3449 40.8979 64.7458 40.3783C65.1466 39.8513 65.6439 39.4468 66.2377 39.1647C66.8389 38.8752 67.5329 38.7305 68.3197 38.7305C68.869 38.7305 69.37 38.8122 69.8228 38.9755C70.283 39.1313 70.6801 39.38 71.0141 39.7214C71.3555 40.0629 71.6153 40.5008 71.7935 41.0352C71.979 41.5696 72.0718 42.2154 72.0718 42.9725V51H69.3886V43.2063C69.3886 42.6199 69.2995 42.1597 69.1214 41.8257C68.9506 41.4917 68.702 41.2542 68.3754 41.1132C68.0562 40.9647 67.674 40.8905 67.2286 40.8905C66.7239 40.8905 66.2934 40.987 65.9371 41.18C65.5882 41.3729 65.3024 41.6364 65.0798 41.9705C64.8571 42.3045 64.6938 42.6904 64.5899 43.1284C64.486 43.5663 64.434 44.0339 64.434 44.5312ZM71.9048 43.8187L70.6467 44.097C70.6467 43.3696 70.7469 42.683 70.9473 42.0373C71.1551 41.3841 71.4558 40.8125 71.8491 40.3226C72.25 39.8253 72.7436 39.4357 73.3299 39.1536C73.9163 38.8715 74.5881 38.7305 75.3452 38.7305C75.9612 38.7305 76.5105 38.8159 76.993 38.9866C77.4829 39.1499 77.8985 39.4097 78.24 39.766C78.5814 40.1222 78.8412 40.5861 79.0193 41.1577C79.1975 41.7218 79.2866 42.4047 79.2866 43.2063V51H76.5922V43.1952C76.5922 42.5865 76.5031 42.1152 76.3249 41.7812C76.1542 41.4472 75.9093 41.2171 75.5901 41.0909C75.2709 40.9573 74.8887 40.8905 74.4433 40.8905C74.0277 40.8905 73.6603 40.9684 73.3411 41.1243C73.0293 41.2727 72.7658 41.4843 72.5506 41.7589C72.3353 42.0261 72.172 42.3342 72.0607 42.683C71.9568 43.0319 71.9048 43.4104 71.9048 43.8187ZM81.5356 45.1102V44.8541C81.5356 43.9857 81.6618 43.1803 81.9141 42.4381C82.1665 41.6884 82.5302 41.0389 83.0053 40.4897C83.4877 39.933 84.0741 39.5025 84.7644 39.1981C85.4621 38.8864 86.2489 38.7305 87.1248 38.7305C88.0081 38.7305 88.7948 38.8864 89.4851 39.1981C90.1829 39.5025 90.773 39.933 91.2554 40.4897C91.7379 41.0389 92.1053 41.6884 92.3577 42.4381C92.61 43.1803 92.7362 43.9857 92.7362 44.8541V45.1102C92.7362 45.9786 92.61 46.784 92.3577 47.5262C92.1053 48.2685 91.7379 48.918 91.2554 49.4747C90.773 50.0239 90.1866 50.4544 89.4963 50.7662C88.806 51.0705 88.0229 51.2227 87.147 51.2227C86.2638 51.2227 85.4733 51.0705 84.7755 50.7662C84.0852 50.4544 83.4989 50.0239 83.0164 49.4747C82.5339 48.918 82.1665 48.2685 81.9141 47.5262C81.6618 46.784 81.5356 45.9786 81.5356 45.1102ZM84.2188 44.8541V45.1102C84.2188 45.652 84.2745 46.1642 84.3858 46.6467C84.4972 47.1291 84.6716 47.5522 84.9091 47.9159C85.1467 48.2796 85.451 48.5654 85.8221 48.7732C86.1932 48.9811 86.6349 49.085 87.147 49.085C87.6444 49.085 88.0749 48.9811 88.4386 48.7732C88.8097 48.5654 89.114 48.2796 89.3515 47.9159C89.5891 47.5522 89.7635 47.1291 89.8748 46.6467C89.9936 46.1642 90.053 45.652 90.053 45.1102V44.8541C90.053 44.3197 89.9936 43.815 89.8748 43.3399C89.7635 42.8575 89.5853 42.4307 89.3404 42.0595C89.1029 41.6884 88.7986 41.3989 88.4274 41.1911C88.0637 40.9758 87.6295 40.8682 87.1248 40.8682C86.62 40.8682 86.1821 40.9758 85.811 41.1911C85.4473 41.3989 85.1467 41.6884 84.9091 42.0595C84.6716 42.4307 84.4972 42.8575 84.3858 43.3399C84.2745 43.815 84.2188 44.3197 84.2188 44.8541ZM97.6797 41.2468V51H94.9964V38.9532H97.5572L97.6797 41.2468ZM101.365 38.8752L101.343 41.3692C101.179 41.3395 101.001 41.3173 100.808 41.3024C100.623 41.2876 100.437 41.2802 100.252 41.2802C99.7914 41.2802 99.3868 41.347 99.038 41.4806C98.6891 41.6068 98.3959 41.7923 98.1584 42.0373C97.9283 42.2748 97.7502 42.5643 97.624 42.9057C97.4978 43.2471 97.4236 43.6294 97.4013 44.0525L96.7889 44.097C96.7889 43.3399 96.8632 42.6385 97.0116 41.9927C97.1601 41.347 97.3828 40.7791 97.6797 40.2892C97.984 39.7994 98.3625 39.4171 98.8153 39.1425C99.2755 38.8678 99.8062 38.7305 100.407 38.7305C100.571 38.7305 100.745 38.7454 100.931 38.775C101.124 38.8047 101.268 38.8381 101.365 38.8752ZM108.134 51.2227C107.244 51.2227 106.438 51.0779 105.718 50.7885C105.006 50.4916 104.397 50.0796 103.892 49.5526C103.395 49.0256 103.013 48.4058 102.746 47.6932C102.478 46.9807 102.345 46.2124 102.345 45.3885V44.9432C102.345 44.0005 102.482 43.1469 102.757 42.3824C103.031 41.6179 103.414 40.9647 103.903 40.4229C104.393 39.8736 104.972 39.4542 105.64 39.1647C106.308 38.8752 107.032 38.7305 107.811 38.7305C108.672 38.7305 109.426 38.8752 110.072 39.1647C110.717 39.4542 111.252 39.8625 111.675 40.3895C112.105 40.909 112.425 41.5288 112.632 42.2488C112.848 42.9688 112.955 43.763 112.955 44.6314V45.7782H103.647V43.8521H110.305V43.6405C110.291 43.1581 110.194 42.7053 110.016 42.2822C109.845 41.8591 109.582 41.5177 109.225 41.2579C108.869 40.9981 108.394 40.8682 107.8 40.8682C107.355 40.8682 106.958 40.9647 106.609 41.1577C106.268 41.3433 105.982 41.6142 105.752 41.9705C105.522 42.3267 105.343 42.7572 105.217 43.262C105.098 43.7593 105.039 44.3197 105.039 44.9432V45.3885C105.039 45.9155 105.11 46.4054 105.251 46.8582C105.399 47.3036 105.614 47.6932 105.896 48.0273C106.178 48.3613 106.52 48.6248 106.921 48.8178C107.322 49.0033 107.778 49.0961 108.29 49.0961C108.936 49.0961 109.511 48.9662 110.016 48.7064C110.521 48.4466 110.959 48.0792 111.33 47.6042L112.744 48.9736C112.484 49.3522 112.146 49.7159 111.731 50.0648C111.315 50.4062 110.806 50.6845 110.205 50.8998C109.611 51.115 108.921 51.2227 108.134 51.2227ZM123.599 33.8984V51H120.905V33.8984H123.599ZM126.026 45.1102V44.8541C126.026 43.9857 126.153 43.1803 126.405 42.4381C126.657 41.6884 127.021 41.0389 127.496 40.4897C127.979 39.933 128.565 39.5025 129.255 39.1981C129.953 38.8864 130.74 38.7305 131.616 38.7305C132.499 38.7305 133.286 38.8864 133.976 39.1981C134.674 39.5025 135.264 39.933 135.746 40.4897C136.229 41.0389 136.596 41.6884 136.848 42.4381C137.101 43.1803 137.227 43.9857 137.227 44.8541V45.1102C137.227 45.9786 137.101 46.784 136.848 47.5262C136.596 48.2685 136.229 48.918 135.746 49.4747C135.264 50.0239 134.677 50.4544 133.987 50.7662C133.297 51.0705 132.514 51.2227 131.638 51.2227C130.755 51.2227 129.964 51.0705 129.266 50.7662C128.576 50.4544 127.99 50.0239 127.507 49.4747C127.025 48.918 126.657 48.2685 126.405 47.5262C126.153 46.784 126.026 45.9786 126.026 45.1102ZM128.71 44.8541V45.1102C128.71 45.652 128.765 46.1642 128.877 46.6467C128.988 47.1291 129.162 47.5522 129.4 47.9159C129.637 48.2796 129.942 48.5654 130.313 48.7732C130.684 48.9811 131.126 49.085 131.638 49.085C132.135 49.085 132.566 48.9811 132.929 48.7732C133.301 48.5654 133.605 48.2796 133.842 47.9159C134.08 47.5522 134.254 47.1291 134.366 46.6467C134.484 46.1642 134.544 45.652 134.544 45.1102V44.8541C134.544 44.3197 134.484 43.815 134.366 43.3399C134.254 42.8575 134.076 42.4307 133.831 42.0595C133.594 41.6884 133.289 41.3989 132.918 41.1911C132.555 40.9758 132.12 40.8682 131.616 40.8682C131.111 40.8682 130.673 40.9758 130.302 41.1911C129.938 41.3989 129.637 41.6884 129.4 42.0595C129.162 42.4307 128.988 42.8575 128.877 43.3399C128.765 43.815 128.71 44.3197 128.71 44.8541ZM146.234 47.7378C146.234 47.4706 146.168 47.2293 146.034 47.0141C145.9 46.7914 145.644 46.591 145.266 46.4129C144.895 46.2347 144.345 46.0714 143.618 45.923C142.98 45.7819 142.393 45.6149 141.859 45.4219C141.332 45.2215 140.879 44.9803 140.5 44.6982C140.122 44.4162 139.829 44.0822 139.621 43.6962C139.413 43.3102 139.309 42.8649 139.309 42.3601C139.309 41.8703 139.417 41.4063 139.632 40.9684C139.847 40.5305 140.155 40.1445 140.556 39.8105C140.957 39.4765 141.443 39.213 142.015 39.02C142.594 38.827 143.239 38.7305 143.952 38.7305C144.961 38.7305 145.826 38.9012 146.546 39.2427C147.273 39.5767 147.83 40.0332 148.216 40.6121C148.602 41.1837 148.795 41.8294 148.795 42.5494H146.112C146.112 42.2302 146.03 41.9333 145.867 41.6587C145.711 41.3767 145.474 41.1503 145.154 40.9795C144.835 40.8014 144.434 40.7123 143.952 40.7123C143.492 40.7123 143.109 40.7866 142.805 40.935C142.508 41.076 142.286 41.2616 142.137 41.4917C141.996 41.7218 141.926 41.9742 141.926 42.2488C141.926 42.4492 141.963 42.6311 142.037 42.7944C142.119 42.9502 142.252 43.095 142.438 43.2286C142.623 43.3548 142.876 43.4735 143.195 43.5849C143.521 43.6962 143.93 43.8038 144.42 43.9077C145.34 44.1007 146.13 44.3494 146.791 44.6537C147.459 44.9506 147.971 45.3366 148.327 45.8116C148.684 46.2793 148.862 46.8731 148.862 47.593C148.862 48.1275 148.747 48.6174 148.517 49.0627C148.294 49.5006 147.967 49.8829 147.537 50.2095C147.106 50.5287 146.591 50.7773 145.989 50.9555C145.396 51.1336 144.728 51.2227 143.985 51.2227C142.894 51.2227 141.97 51.0297 141.213 50.6437C140.456 50.2503 139.881 49.7493 139.487 49.1406C139.101 48.5246 138.908 47.8862 138.908 47.2256H141.502C141.532 47.7229 141.669 48.12 141.914 48.4169C142.167 48.7064 142.479 48.918 142.85 49.0516C143.228 49.1778 143.618 49.2409 144.019 49.2409C144.501 49.2409 144.906 49.1778 145.232 49.0516C145.559 48.918 145.808 48.7398 145.978 48.5172C146.149 48.2871 146.234 48.0273 146.234 47.7378ZM156.734 38.9532V40.9127H149.942V38.9532H156.734ZM151.901 36.0027H154.585V47.671C154.585 48.0421 154.637 48.3279 154.741 48.5283C154.852 48.7213 155.004 48.8512 155.197 48.918C155.39 48.9848 155.616 49.0182 155.876 49.0182C156.062 49.0182 156.24 49.007 156.411 48.9848C156.581 48.9625 156.719 48.9402 156.823 48.918L156.834 50.9666C156.611 51.0334 156.351 51.0928 156.054 51.1447C155.765 51.1967 155.431 51.2227 155.052 51.2227C154.436 51.2227 153.891 51.115 153.416 50.8998C152.941 50.6771 152.569 50.3171 152.302 49.8198C152.035 49.3225 151.901 48.6619 151.901 47.838V36.0027ZM163.971 45.1102V44.8541C163.971 43.9857 164.097 43.1803 164.349 42.4381C164.601 41.6884 164.965 41.0389 165.44 40.4897C165.923 39.933 166.509 39.5025 167.199 39.1981C167.897 38.8864 168.684 38.7305 169.56 38.7305C170.443 38.7305 171.23 38.8864 171.92 39.1981C172.618 39.5025 173.208 39.933 173.69 40.4897C174.173 41.0389 174.54 41.6884 174.793 42.4381C175.045 43.1803 175.171 43.9857 175.171 44.8541V45.1102C175.171 45.9786 175.045 46.784 174.793 47.5262C174.54 48.2685 174.173 48.918 173.69 49.4747C173.208 50.0239 172.622 50.4544 171.931 50.7662C171.241 51.0705 170.458 51.2227 169.582 51.2227C168.699 51.2227 167.908 51.0705 167.21 50.7662C166.52 50.4544 165.934 50.0239 165.451 49.4747C164.969 48.918 164.601 48.2685 164.349 47.5262C164.097 46.784 163.971 45.9786 163.971 45.1102ZM166.654 44.8541V45.1102C166.654 45.652 166.709 46.1642 166.821 46.6467C166.932 47.1291 167.107 47.5522 167.344 47.9159C167.582 48.2796 167.886 48.5654 168.257 48.7732C168.628 48.9811 169.07 49.085 169.582 49.085C170.079 49.085 170.51 48.9811 170.874 48.7732C171.245 48.5654 171.549 48.2796 171.786 47.9159C172.024 47.5522 172.198 47.1291 172.31 46.6467C172.429 46.1642 172.488 45.652 172.488 45.1102V44.8541C172.488 44.3197 172.429 43.815 172.31 43.3399C172.198 42.8575 172.02 42.4307 171.775 42.0595C171.538 41.6884 171.233 41.3989 170.862 41.1911C170.499 40.9758 170.064 40.8682 169.56 40.8682C169.055 40.8682 168.617 40.9758 168.246 41.1911C167.882 41.3989 167.582 41.6884 167.344 42.0595C167.107 42.4307 166.932 42.8575 166.821 43.3399C166.709 43.815 166.654 44.3197 166.654 44.8541ZM180.115 41.2468V51H177.431V38.9532H179.992L180.115 41.2468ZM183.8 38.8752L183.778 41.3692C183.614 41.3395 183.436 41.3173 183.243 41.3024C183.058 41.2876 182.872 41.2802 182.687 41.2802C182.226 41.2802 181.822 41.347 181.473 41.4806C181.124 41.6068 180.831 41.7923 180.593 42.0373C180.363 42.2748 180.185 42.5643 180.059 42.9057C179.933 43.2471 179.859 43.6294 179.836 44.0525L179.224 44.097C179.224 43.3399 179.298 42.6385 179.447 41.9927C179.595 41.347 179.818 40.7791 180.115 40.2892C180.419 39.7994 180.797 39.4171 181.25 39.1425C181.71 38.8678 182.241 38.7305 182.842 38.7305C183.006 38.7305 183.18 38.7454 183.366 38.775C183.559 38.8047 183.703 38.8381 183.8 38.8752ZM31.0102 78H28.327V64.7953C28.327 63.8971 28.494 63.1437 28.828 62.5351C29.1694 61.919 29.6556 61.4551 30.2865 61.1434C30.9174 60.8242 31.6634 60.6646 32.5244 60.6646C32.7916 60.6646 33.0551 60.6832 33.3149 60.7203C33.5747 60.75 33.8271 60.7982 34.072 60.865L34.0052 62.9359C33.8568 62.8988 33.6935 62.8728 33.5153 62.858C33.3446 62.8431 33.1591 62.8357 32.9586 62.8357C32.5504 62.8357 32.1978 62.9136 31.9009 63.0695C31.6115 63.218 31.3888 63.4369 31.2329 63.7264C31.0845 64.0159 31.0102 64.3722 31.0102 64.7953V78ZM33.4931 65.9532V67.9127H26.4788V65.9532H33.4931ZM34.9293 72.1102V71.8541C34.9293 70.9857 35.0555 70.1803 35.3079 69.4381C35.5603 68.6884 35.924 68.0389 36.399 67.4897C36.8815 66.933 37.4679 66.5025 38.1582 66.1981C38.8559 65.8864 39.6427 65.7305 40.5185 65.7305C41.4018 65.7305 42.1886 65.8864 42.8789 66.1981C43.5766 66.5025 44.1667 66.933 44.6492 67.4897C45.1316 68.0389 45.4991 68.6884 45.7514 69.4381C46.0038 70.1803 46.13 70.9857 46.13 71.8541V72.1102C46.13 72.9786 46.0038 73.784 45.7514 74.5262C45.4991 75.2685 45.1316 75.918 44.6492 76.4747C44.1667 77.0239 43.5803 77.4544 42.89 77.7662C42.1997 78.0705 41.4167 78.2227 40.5408 78.2227C39.6575 78.2227 38.867 78.0705 38.1693 77.7662C37.479 77.4544 36.8926 77.0239 36.4101 76.4747C35.9277 75.918 35.5603 75.2685 35.3079 74.5262C35.0555 73.784 34.9293 72.9786 34.9293 72.1102ZM37.6126 71.8541V72.1102C37.6126 72.652 37.6683 73.1642 37.7796 73.6467C37.8909 74.1291 38.0654 74.5522 38.3029 74.9159C38.5404 75.2796 38.8447 75.5654 39.2159 75.7732C39.587 75.9811 40.0286 76.085 40.5408 76.085C41.0381 76.085 41.4686 75.9811 41.8323 75.7732C42.2034 75.5654 42.5078 75.2796 42.7453 74.9159C42.9828 74.5522 43.1572 74.1291 43.2686 73.6467C43.3873 73.1642 43.4467 72.652 43.4467 72.1102V71.8541C43.4467 71.3197 43.3873 70.815 43.2686 70.3399C43.1572 69.8575 42.9791 69.4307 42.7342 69.0595C42.4966 68.6884 42.1923 68.3989 41.8212 68.1911C41.4575 67.9758 41.0233 67.8682 40.5185 67.8682C40.0138 67.8682 39.5759 67.9758 39.2047 68.1911C38.841 68.3989 38.5404 68.6884 38.3029 69.0595C38.0654 69.4307 37.8909 69.8575 37.7796 70.3399C37.6683 70.815 37.6126 71.3197 37.6126 71.8541ZM51.0734 68.2468V78H48.3901V65.9532H50.9509L51.0734 68.2468ZM54.7587 65.8752L54.7364 68.3692C54.5731 68.3395 54.395 68.3173 54.202 68.3024C54.0164 68.2876 53.8309 68.2802 53.6453 68.2802C53.1851 68.2802 52.7806 68.347 52.4317 68.4806C52.0829 68.6068 51.7897 68.7923 51.5522 69.0373C51.3221 69.2748 51.1439 69.5643 51.0177 69.9057C50.8916 70.2471 50.8173 70.6294 50.7951 71.0525L50.1827 71.097C50.1827 70.3399 50.2569 69.6385 50.4054 68.9927C50.5538 68.347 50.7765 67.7791 51.0734 67.2892C51.3777 66.7994 51.7563 66.4171 52.2091 66.1425C52.6693 65.8678 53.2 65.7305 53.8012 65.7305C53.9645 65.7305 54.1389 65.7454 54.3245 65.775C54.5175 65.8047 54.6622 65.8381 54.7587 65.8752ZM63.933 65.9532H66.3713V77.666C66.3713 78.7497 66.1412 79.6701 65.681 80.4272C65.2208 81.1843 64.5787 81.7595 63.7548 82.1529C62.9309 82.5537 61.9771 82.7541 60.8934 82.7541C60.4333 82.7541 59.9211 82.6873 59.357 82.5537C58.8003 82.4201 58.2584 82.2049 57.7314 81.908C57.2119 81.6185 56.7776 81.2362 56.4288 80.7612L57.6869 79.1802C58.1174 79.6923 58.5925 80.0672 59.112 80.3047C59.6316 80.5422 60.1772 80.661 60.7487 80.661C61.3648 80.661 61.8881 80.5459 62.3186 80.3158C62.7565 80.0932 63.0942 79.7629 63.3318 79.3249C63.5693 78.887 63.688 78.3526 63.688 77.7217V68.681L63.933 65.9532ZM55.7496 72.1102V71.8764C55.7496 70.9634 55.861 70.1321 56.0836 69.3824C56.3063 68.6253 56.6255 67.9758 57.0411 67.434C57.4568 66.8847 57.9615 66.4653 58.5553 66.1759C59.1491 65.879 59.8209 65.7305 60.5706 65.7305C61.3499 65.7305 62.0143 65.8715 62.5635 66.1536C63.1202 66.4357 63.5841 66.8402 63.9553 67.3672C64.3264 67.8868 64.6159 68.5103 64.8237 69.2377C65.0389 69.9577 65.1985 70.7593 65.3024 71.6426V72.3885C65.206 73.2496 65.0427 74.0364 64.8126 74.7489C64.5825 75.4615 64.2781 76.0776 63.8996 76.5971C63.521 77.1167 63.0534 77.5175 62.4967 77.7996C61.9475 78.0816 61.298 78.2227 60.5483 78.2227C59.8135 78.2227 59.1491 78.0705 58.5553 77.7662C57.969 77.4619 57.4642 77.0351 57.0411 76.4858C56.6255 75.9365 56.3063 75.2908 56.0836 74.5485C55.861 73.7988 55.7496 72.9861 55.7496 72.1102ZM58.4329 71.8764V72.1102C58.4329 72.6595 58.4848 73.1716 58.5887 73.6467C58.7001 74.1217 58.8671 74.5411 59.0898 74.9048C59.3199 75.2611 59.6093 75.5431 59.9582 75.751C60.3145 75.9514 60.7339 76.0516 61.2163 76.0516C61.8472 76.0516 62.3631 75.918 62.7639 75.6508C63.1722 75.3835 63.4839 75.0236 63.6992 74.5708C63.9219 74.1106 64.0777 73.5984 64.1668 73.0343V71.0191C64.1223 70.5812 64.0295 70.1729 63.8885 69.7944C63.7548 69.4158 63.573 69.0855 63.3429 68.8034C63.1128 68.514 62.8233 68.2913 62.4745 68.1354C62.1256 67.9721 61.7136 67.8905 61.2386 67.8905C60.7561 67.8905 60.3368 67.9944 59.9805 68.2022C59.6242 68.4101 59.331 68.6958 59.1009 69.0595C58.8782 69.4232 58.7112 69.8463 58.5999 70.3288C58.4885 70.8113 58.4329 71.3271 58.4329 71.8764ZM68.6426 72.1102V71.8541C68.6426 70.9857 68.7688 70.1803 69.0212 69.4381C69.2735 68.6884 69.6372 68.0389 70.1123 67.4897C70.5947 66.933 71.1811 66.5025 71.8714 66.1981C72.5691 65.8864 73.3559 65.7305 74.2318 65.7305C75.1151 65.7305 75.9019 65.8864 76.5922 66.1981C77.2899 66.5025 77.88 66.933 78.3624 67.4897C78.8449 68.0389 79.2123 68.6884 79.4647 69.4381C79.7171 70.1803 79.8432 70.9857 79.8432 71.8541V72.1102C79.8432 72.9786 79.7171 73.784 79.4647 74.5262C79.2123 75.2685 78.8449 75.918 78.3624 76.4747C77.88 77.0239 77.2936 77.4544 76.6033 77.7662C75.913 78.0705 75.1299 78.2227 74.2541 78.2227C73.3708 78.2227 72.5803 78.0705 71.8825 77.7662C71.1923 77.4544 70.6059 77.0239 70.1234 76.4747C69.6409 75.918 69.2735 75.2685 69.0212 74.5262C68.7688 73.784 68.6426 72.9786 68.6426 72.1102ZM71.3259 71.8541V72.1102C71.3259 72.652 71.3815 73.1642 71.4929 73.6467C71.6042 74.1291 71.7786 74.5522 72.0162 74.9159C72.2537 75.2796 72.558 75.5654 72.9291 75.7732C73.3003 75.9811 73.7419 76.085 74.2541 76.085C74.7514 76.085 75.1819 75.9811 75.5456 75.7732C75.9167 75.5654 76.221 75.2796 76.4586 74.9159C76.6961 74.5522 76.8705 74.1291 76.9818 73.6467C77.1006 73.1642 77.16 72.652 77.16 72.1102V71.8541C77.16 71.3197 77.1006 70.815 76.9818 70.3399C76.8705 69.8575 76.6924 69.4307 76.4474 69.0595C76.2099 68.6884 75.9056 68.3989 75.5344 68.1911C75.1707 67.9758 74.7365 67.8682 74.2318 67.8682C73.7271 67.8682 73.2891 67.9758 72.918 68.1911C72.5543 68.3989 72.2537 68.6884 72.0162 69.0595C71.7786 69.4307 71.6042 69.8575 71.4929 70.3399C71.3815 70.815 71.3259 71.3197 71.3259 71.8541ZM87.6147 65.9532V67.9127H80.823V65.9532H87.6147ZM82.7826 63.0027H85.4658V74.671C85.4658 75.0421 85.5178 75.3279 85.6217 75.5283C85.733 75.7213 85.8852 75.8512 86.0782 75.918C86.2712 75.9848 86.4976 76.0182 86.7574 76.0182C86.9429 76.0182 87.1211 76.007 87.2918 75.9848C87.4625 75.9625 87.5998 75.9402 87.7037 75.918L87.7149 77.9666C87.4922 78.0334 87.2324 78.0928 86.9355 78.1447C86.646 78.1967 86.312 78.2227 85.9335 78.2227C85.3174 78.2227 84.7718 78.115 84.2968 77.8998C83.8217 77.6771 83.4506 77.3171 83.1834 76.8198C82.9162 76.3225 82.7826 75.6619 82.7826 74.838V63.0027ZM95.2079 65.9532V67.9127H88.4163V65.9532H95.2079ZM90.3759 63.0027H93.0591V74.671C93.0591 75.0421 93.1111 75.3279 93.215 75.5283C93.3263 75.7213 93.4785 75.8512 93.6715 75.918C93.8645 75.9848 94.0908 76.0182 94.3506 76.0182C94.5362 76.0182 94.7143 76.007 94.8851 75.9848C95.0558 75.9625 95.1931 75.9402 95.297 75.918L95.3081 77.9666C95.0855 78.0334 94.8257 78.0928 94.5288 78.1447C94.2393 78.1967 93.9053 78.2227 93.5267 78.2227C92.9107 78.2227 92.3651 78.115 91.8901 77.8998C91.415 77.6771 91.0439 77.3171 90.7767 76.8198C90.5095 76.3225 90.3759 75.6619 90.3759 74.838V63.0027ZM102.59 78.2227C101.699 78.2227 100.894 78.0779 100.174 77.7885C99.4611 77.4916 98.8524 77.0796 98.3477 76.5526C97.8504 76.0256 97.4681 75.4058 97.2009 74.6932C96.9337 73.9807 96.8001 73.2124 96.8001 72.3885V71.9432C96.8001 71.0005 96.9374 70.1469 97.212 69.3824C97.4867 68.6179 97.8689 67.9647 98.3588 67.4229C98.8487 66.8736 99.4277 66.4542 100.096 66.1647C100.764 65.8752 101.487 65.7305 102.267 65.7305C103.128 65.7305 103.881 65.8752 104.527 66.1647C105.173 66.4542 105.707 66.8625 106.13 67.3895C106.561 67.909 106.88 68.5288 107.088 69.2488C107.303 69.9688 107.411 70.763 107.411 71.6314V72.7782H98.1027V70.8521H104.761V70.6405C104.746 70.1581 104.649 69.7053 104.471 69.2822C104.301 68.8591 104.037 68.5177 103.681 68.2579C103.325 67.9981 102.849 67.8682 102.256 67.8682C101.81 67.8682 101.413 67.9647 101.064 68.1577C100.723 68.3433 100.437 68.6142 100.207 68.9705C99.9769 69.3267 99.7988 69.7572 99.6726 70.262C99.5538 70.7593 99.4945 71.3197 99.4945 71.9432V72.3885C99.4945 72.9155 99.565 73.4054 99.706 73.8582C99.8545 74.3036 100.07 74.6932 100.352 75.0273C100.634 75.3613 100.975 75.6248 101.376 75.8178C101.777 76.0033 102.233 76.0961 102.746 76.0961C103.391 76.0961 103.967 75.9662 104.471 75.7064C104.976 75.4466 105.414 75.0792 105.785 74.6042L107.199 75.9736C106.939 76.3522 106.602 76.7159 106.186 77.0648C105.77 77.4062 105.262 77.6845 104.661 77.8998C104.067 78.115 103.376 78.2227 102.59 78.2227ZM112.165 68.5251V78H109.482V65.9532H112.009L112.165 68.5251ZM111.686 71.5312L110.818 71.5201C110.825 70.6665 110.944 69.8834 111.174 69.1709C111.411 68.4583 111.738 67.8459 112.154 67.3338C112.577 66.8216 113.081 66.4282 113.668 66.1536C114.254 65.8715 114.907 65.7305 115.627 65.7305C116.206 65.7305 116.73 65.8122 117.197 65.9755C117.672 66.1313 118.077 66.3874 118.411 66.7437C118.752 67.1 119.012 67.5639 119.19 68.1354C119.368 68.6995 119.457 69.3935 119.457 70.2174V78H116.763V70.2063C116.763 69.6274 116.678 69.1709 116.507 68.8369C116.344 68.4954 116.102 68.2542 115.783 68.1132C115.472 67.9647 115.082 67.8905 114.614 67.8905C114.154 67.8905 113.742 67.987 113.378 68.18C113.015 68.3729 112.707 68.6364 112.454 68.9705C112.209 69.3045 112.02 69.6904 111.886 70.1284C111.753 70.5663 111.686 71.0339 111.686 71.5312ZM132.796 76.085C133.234 76.085 133.627 75.9996 133.976 75.8289C134.332 75.6508 134.618 75.4058 134.833 75.0941C135.056 74.7823 135.178 74.4223 135.201 74.0141H137.728C137.713 74.7935 137.483 75.5023 137.038 76.1406C136.592 76.779 136.002 77.2874 135.267 77.666C134.533 78.0371 133.72 78.2227 132.829 78.2227C131.909 78.2227 131.107 78.0668 130.424 77.7551C129.741 77.4359 129.174 76.998 128.721 76.4413C128.268 75.8846 127.927 75.2425 127.696 74.5151C127.474 73.7877 127.362 73.0083 127.362 72.177V71.7873C127.362 70.956 127.474 70.1766 127.696 69.4492C127.927 68.7144 128.268 68.0686 128.721 67.5119C129.174 66.9552 129.741 66.521 130.424 66.2093C131.107 65.8901 131.905 65.7305 132.818 65.7305C133.783 65.7305 134.629 65.9235 135.357 66.3095C136.084 66.688 136.656 67.2187 137.071 67.9016C137.494 68.5771 137.713 69.3639 137.728 70.262H135.201C135.178 69.8166 135.067 69.4158 134.867 69.0595C134.674 68.6958 134.399 68.4063 134.043 68.1911C133.694 67.9758 133.275 67.8682 132.785 67.8682C132.243 67.8682 131.794 67.9795 131.437 68.2022C131.081 68.4175 130.803 68.7144 130.602 69.0929C130.402 69.4641 130.257 69.8834 130.168 70.3511C130.087 70.8113 130.046 71.29 130.046 71.7873V72.177C130.046 72.6743 130.087 73.1568 130.168 73.6244C130.25 74.092 130.391 74.5114 130.591 74.8825C130.799 75.2462 131.081 75.5394 131.437 75.7621C131.794 75.9774 132.247 76.085 132.796 76.085ZM142.482 68.2468V78H139.799V65.9532H142.36L142.482 68.2468ZM146.168 65.8752L146.145 68.3692C145.982 68.3395 145.804 68.3173 145.611 68.3024C145.425 68.2876 145.24 68.2802 145.054 68.2802C144.594 68.2802 144.189 68.347 143.841 68.4806C143.492 68.6068 143.198 68.7923 142.961 69.0373C142.731 69.2748 142.553 69.5643 142.427 69.9057C142.3 70.2471 142.226 70.6294 142.204 71.0525L141.592 71.097C141.592 70.3399 141.666 69.6385 141.814 68.9927C141.963 68.347 142.185 67.7791 142.482 67.2892C142.787 66.7994 143.165 66.4171 143.618 66.1425C144.078 65.8678 144.609 65.7305 145.21 65.7305C145.373 65.7305 145.548 65.7454 145.733 65.775C145.926 65.8047 146.071 65.8381 146.168 65.8752ZM152.937 78.2227C152.046 78.2227 151.241 78.0779 150.521 77.7885C149.808 77.4916 149.2 77.0796 148.695 76.5526C148.198 76.0256 147.815 75.4058 147.548 74.6932C147.281 73.9807 147.147 73.2124 147.147 72.3885V71.9432C147.147 71.0005 147.285 70.1469 147.559 69.3824C147.834 68.6179 148.216 67.9647 148.706 67.4229C149.196 66.8736 149.775 66.4542 150.443 66.1647C151.111 65.8752 151.835 65.7305 152.614 65.7305C153.475 65.7305 154.228 65.8752 154.874 66.1647C155.52 66.4542 156.054 66.8625 156.477 67.3895C156.908 67.909 157.227 68.5288 157.435 69.2488C157.65 69.9688 157.758 70.763 157.758 71.6314V72.7782H148.45V70.8521H155.108V70.6405C155.093 70.1581 154.997 69.7053 154.819 69.2822C154.648 68.8591 154.384 68.5177 154.028 68.2579C153.672 67.9981 153.197 67.8682 152.603 67.8682C152.158 67.8682 151.76 67.9647 151.412 68.1577C151.07 68.3433 150.784 68.6142 150.554 68.9705C150.324 69.3267 150.146 69.7572 150.02 70.262C149.901 70.7593 149.842 71.3197 149.842 71.9432V72.3885C149.842 72.9155 149.912 73.4054 150.053 73.8582C150.202 74.3036 150.417 74.6932 150.699 75.0273C150.981 75.3613 151.322 75.6248 151.723 75.8178C152.124 76.0033 152.581 76.0961 153.093 76.0961C153.739 76.0961 154.314 75.9662 154.819 75.7064C155.323 75.4466 155.761 75.0792 156.132 74.6042L157.546 75.9736C157.287 76.3522 156.949 76.7159 156.533 77.0648C156.117 77.4062 155.609 77.6845 155.008 77.8998C154.414 78.115 153.724 78.2227 152.937 78.2227ZM167.199 75.506V60.8984H169.894V78H167.455L167.199 75.506ZM159.361 72.1102V71.8764C159.361 70.9634 159.469 70.1321 159.684 69.3824C159.899 68.6253 160.211 67.9758 160.619 67.434C161.027 66.8847 161.525 66.4653 162.111 66.1759C162.698 65.879 163.358 65.7305 164.093 65.7305C164.82 65.7305 165.459 65.8715 166.008 66.1536C166.557 66.4357 167.025 66.8402 167.411 67.3672C167.797 67.8868 168.105 68.5103 168.335 69.2377C168.565 69.9577 168.728 70.7593 168.825 71.6426V72.3885C168.728 73.2496 168.565 74.0364 168.335 74.7489C168.105 75.4615 167.797 76.0776 167.411 76.5971C167.025 77.1167 166.554 77.5175 165.997 77.7996C165.448 78.0816 164.806 78.2227 164.071 78.2227C163.343 78.2227 162.686 78.0705 162.1 77.7662C161.521 77.4619 161.027 77.0351 160.619 76.4858C160.211 75.9365 159.899 75.2908 159.684 74.5485C159.469 73.7988 159.361 72.9861 159.361 72.1102ZM162.044 71.8764V72.1102C162.044 72.6595 162.093 73.1716 162.189 73.6467C162.293 74.1217 162.453 74.5411 162.668 74.9048C162.883 75.2611 163.161 75.5431 163.503 75.751C163.852 75.9514 164.267 76.0516 164.75 76.0516C165.359 76.0516 165.86 75.918 166.253 75.6508C166.646 75.3835 166.954 75.0236 167.177 74.5708C167.407 74.1106 167.563 73.5984 167.645 73.0343V71.0191C167.6 70.5812 167.507 70.1729 167.366 69.7944C167.233 69.4158 167.051 69.0855 166.821 68.8034C166.591 68.514 166.305 68.2913 165.963 68.1354C165.629 67.9721 165.232 67.8905 164.772 67.8905C164.282 67.8905 163.867 67.9944 163.525 68.2022C163.184 68.4101 162.902 68.6958 162.679 69.0595C162.464 69.4232 162.304 69.8463 162.2 70.3288C162.096 70.8113 162.044 71.3271 162.044 71.8764ZM175.572 65.9532V78H172.878V65.9532H175.572ZM172.699 62.7912C172.699 62.3829 172.833 62.0452 173.1 61.778C173.375 61.5034 173.753 61.366 174.236 61.366C174.711 61.366 175.086 61.5034 175.36 61.778C175.635 62.0452 175.772 62.3829 175.772 62.7912C175.772 63.192 175.635 63.526 175.36 63.7932C175.086 64.0604 174.711 64.194 174.236 64.194C173.753 64.194 173.375 64.0604 173.1 63.7932C172.833 63.526 172.699 63.192 172.699 62.7912ZM184.034 65.9532V67.9127H177.242V65.9532H184.034ZM179.202 63.0027H181.885V74.671C181.885 75.0421 181.937 75.3279 182.041 75.5283C182.152 75.7213 182.304 75.8512 182.497 75.918C182.69 75.9848 182.917 76.0182 183.176 76.0182C183.362 76.0182 183.54 76.007 183.711 75.9848C183.882 75.9625 184.019 75.9402 184.123 75.918L184.134 77.9666C183.911 78.0334 183.651 78.0928 183.355 78.1447C183.065 78.1967 182.731 78.2227 182.352 78.2227C181.736 78.2227 181.191 78.115 180.716 77.8998C180.241 77.6771 179.87 77.3171 179.602 76.8198C179.335 76.3225 179.202 75.6619 179.202 74.838V63.0027ZM196.704 76.085C197.142 76.085 197.535 75.9996 197.884 75.8289C198.24 75.6508 198.526 75.4058 198.741 75.0941C198.964 74.7823 199.087 74.4223 199.109 74.0141H201.636C201.621 74.7935 201.391 75.5023 200.946 76.1406C200.501 76.779 199.911 77.2874 199.176 77.666C198.441 78.0371 197.628 78.2227 196.737 78.2227C195.817 78.2227 195.015 78.0668 194.332 77.7551C193.65 77.4359 193.082 76.998 192.629 76.4413C192.176 75.8846 191.835 75.2425 191.605 74.5151C191.382 73.7877 191.271 73.0083 191.271 72.177V71.7873C191.271 70.956 191.382 70.1766 191.605 69.4492C191.835 68.7144 192.176 68.0686 192.629 67.5119C193.082 66.9552 193.65 66.521 194.332 66.2093C195.015 65.8901 195.813 65.7305 196.726 65.7305C197.691 65.7305 198.537 65.9235 199.265 66.3095C199.992 66.688 200.564 67.2187 200.979 67.9016C201.402 68.5771 201.621 69.3639 201.636 70.262H199.109C199.087 69.8166 198.975 69.4158 198.775 69.0595C198.582 68.6958 198.307 68.4063 197.951 68.1911C197.602 67.9758 197.183 67.8682 196.693 67.8682C196.151 67.8682 195.702 67.9795 195.346 68.2022C194.989 68.4175 194.711 68.7144 194.511 69.0929C194.31 69.4641 194.165 69.8834 194.076 70.3511C193.995 70.8113 193.954 71.29 193.954 71.7873V72.177C193.954 72.6743 193.995 73.1568 194.076 73.6244C194.158 74.092 194.299 74.5114 194.5 74.8825C194.707 75.2462 194.989 75.5394 195.346 75.7621C195.702 75.9774 196.155 76.085 196.704 76.085ZM210.488 75.584V69.8389C210.488 69.4084 210.41 69.0373 210.254 68.7255C210.098 68.4138 209.86 68.1725 209.541 68.0018C209.23 67.8311 208.836 67.7457 208.361 67.7457C207.923 67.7457 207.545 67.82 207.225 67.9684C206.906 68.1169 206.658 68.3173 206.48 68.5696C206.301 68.822 206.212 69.1078 206.212 69.4269H203.54C203.54 68.9519 203.655 68.4917 203.885 68.0463C204.115 67.601 204.449 67.2039 204.887 66.855C205.325 66.5062 205.849 66.2315 206.457 66.0311C207.066 65.8307 207.749 65.7305 208.506 65.7305C209.411 65.7305 210.213 65.8827 210.911 66.187C211.616 66.4913 212.169 66.9515 212.57 67.5676C212.978 68.1762 213.182 68.9408 213.182 69.8612V75.2165C213.182 75.7658 213.219 76.2594 213.293 76.6973C213.375 77.1278 213.49 77.5027 213.639 77.8219V78H210.889C210.762 77.7105 210.662 77.3431 210.588 76.8977C210.521 76.445 210.488 76.007 210.488 75.584ZM210.877 70.6739L210.9 72.3329H208.973C208.476 72.3329 208.038 72.3811 207.66 72.4776C207.281 72.5667 206.966 72.7003 206.713 72.8784C206.461 73.0566 206.272 73.2718 206.146 73.5242C206.019 73.7766 205.956 74.0623 205.956 74.3815C205.956 74.7007 206.03 74.9939 206.179 75.2611C206.327 75.5209 206.543 75.725 206.825 75.8734C207.114 76.0219 207.463 76.0961 207.871 76.0961C208.421 76.0961 208.899 75.9848 209.308 75.7621C209.723 75.532 210.05 75.2537 210.287 74.9271C210.525 74.593 210.651 74.2776 210.666 73.9807L211.534 75.172C211.445 75.4763 211.293 75.8029 211.078 76.1518C210.863 76.5006 210.58 76.8347 210.232 77.1538C209.89 77.4656 209.478 77.7217 208.996 77.9221C208.521 78.1225 207.971 78.2227 207.348 78.2227C206.561 78.2227 205.86 78.0668 205.244 77.7551C204.628 77.4359 204.145 77.0091 203.796 76.4747C203.447 75.9328 203.273 75.3205 203.273 74.6376C203.273 73.9992 203.392 73.4351 203.629 72.9452C203.874 72.4479 204.23 72.0323 204.698 71.6982C205.173 71.3642 205.752 71.1119 206.435 70.9411C207.118 70.763 207.897 70.6739 208.773 70.6739H210.877ZM218.682 68.2468V78H215.999V65.9532H218.56L218.682 68.2468ZM222.368 65.8752L222.345 68.3692C222.182 68.3395 222.004 68.3173 221.811 68.3024C221.625 68.2876 221.44 68.2802 221.254 68.2802C220.794 68.2802 220.389 68.347 220.041 68.4806C219.692 68.6068 219.398 68.7923 219.161 69.0373C218.931 69.2748 218.753 69.5643 218.627 69.9057C218.5 70.2471 218.426 70.6294 218.404 71.0525L217.792 71.097C217.792 70.3399 217.866 69.6385 218.014 68.9927C218.163 68.347 218.385 67.7791 218.682 67.2892C218.987 66.7994 219.365 66.4171 219.818 66.1425C220.278 65.8678 220.809 65.7305 221.41 65.7305C221.573 65.7305 221.748 65.7454 221.933 65.775C222.126 65.8047 222.271 65.8381 222.368 65.8752ZM231.174 75.506V60.8984H233.869V78H231.43L231.174 75.506ZM223.336 72.1102V71.8764C223.336 70.9634 223.444 70.1321 223.659 69.3824C223.874 68.6253 224.186 67.9758 224.594 67.434C225.003 66.8847 225.5 66.4653 226.086 66.1759C226.673 65.879 227.333 65.7305 228.068 65.7305C228.795 65.7305 229.434 65.8715 229.983 66.1536C230.532 66.4357 231 66.8402 231.386 67.3672C231.772 67.8868 232.08 68.5103 232.31 69.2377C232.54 69.9577 232.703 70.7593 232.8 71.6426V72.3885C232.703 73.2496 232.54 74.0364 232.31 74.7489C232.08 75.4615 231.772 76.0776 231.386 76.5971C231 77.1167 230.529 77.5175 229.972 77.7996C229.423 78.0816 228.781 78.2227 228.046 78.2227C227.318 78.2227 226.661 78.0705 226.075 77.7662C225.496 77.4619 225.003 77.0351 224.594 76.4858C224.186 75.9365 223.874 75.2908 223.659 74.5485C223.444 73.7988 223.336 72.9861 223.336 72.1102ZM226.019 71.8764V72.1102C226.019 72.6595 226.068 73.1716 226.164 73.6467C226.268 74.1217 226.428 74.5411 226.643 74.9048C226.858 75.2611 227.137 75.5431 227.478 75.751C227.827 75.9514 228.242 76.0516 228.725 76.0516C229.334 76.0516 229.835 75.918 230.228 75.6508C230.621 75.3835 230.929 75.0236 231.152 74.5708C231.382 74.1106 231.538 73.5984 231.62 73.0343V71.0191C231.575 70.5812 231.482 70.1729 231.341 69.7944C231.208 69.4158 231.026 69.0855 230.796 68.8034C230.566 68.514 230.28 68.2913 229.939 68.1354C229.605 67.9721 229.207 67.8905 228.747 67.8905C228.257 67.8905 227.842 67.9944 227.5 68.2022C227.159 68.4101 226.877 68.6958 226.654 69.0595C226.439 69.4232 226.279 69.8463 226.175 70.3288C226.071 70.8113 226.019 71.3271 226.019 71.8764ZM243.433 74.7378C243.433 74.4706 243.366 74.2293 243.232 74.0141C243.099 73.7914 242.843 73.591 242.464 73.4129C242.093 73.2347 241.544 73.0714 240.816 72.923C240.178 72.7819 239.592 72.6149 239.057 72.4219C238.53 72.2215 238.077 71.9803 237.699 71.6982C237.32 71.4162 237.027 71.0822 236.819 70.6962C236.611 70.3102 236.507 69.8649 236.507 69.3601C236.507 68.8703 236.615 68.4063 236.83 67.9684C237.046 67.5305 237.354 67.1445 237.754 66.8105C238.155 66.4765 238.641 66.213 239.213 66.02C239.792 65.827 240.438 65.7305 241.15 65.7305C242.16 65.7305 243.024 65.9012 243.744 66.2427C244.472 66.5767 245.029 67.0332 245.415 67.6121C245.801 68.1837 245.994 68.8294 245.994 69.5494H243.31C243.31 69.2302 243.229 68.9333 243.065 68.6587C242.909 68.3767 242.672 68.1503 242.353 67.9795C242.034 67.8014 241.633 67.7123 241.15 67.7123C240.69 67.7123 240.308 67.7866 240.004 67.935C239.707 68.076 239.484 68.2616 239.335 68.4917C239.194 68.7218 239.124 68.9742 239.124 69.2488C239.124 69.4492 239.161 69.6311 239.235 69.7944C239.317 69.9502 239.451 70.095 239.636 70.2286C239.822 70.3548 240.074 70.4735 240.393 70.5849C240.72 70.6962 241.128 70.8038 241.618 70.9077C242.538 71.1007 243.329 71.3494 243.989 71.6537C244.657 71.9506 245.17 72.3366 245.526 72.8116C245.882 73.2793 246.06 73.8731 246.06 74.593C246.06 75.1275 245.945 75.6174 245.715 76.0627C245.492 76.5006 245.166 76.8829 244.735 77.2095C244.305 77.5287 243.789 77.7773 243.188 77.9555C242.594 78.1336 241.926 78.2227 241.184 78.2227C240.093 78.2227 239.168 78.0297 238.411 77.6437C237.654 77.2503 237.079 76.7493 236.686 76.1406C236.3 75.5246 236.107 74.8862 236.107 74.2256H238.701C238.731 74.7229 238.868 75.12 239.113 75.4169C239.365 75.7064 239.677 75.918 240.048 76.0516C240.427 76.1778 240.816 76.2409 241.217 76.2409C241.7 76.2409 242.104 76.1778 242.431 76.0516C242.757 75.918 243.006 75.7398 243.177 75.5172C243.347 75.2871 243.433 75.0273 243.433 74.7378Z" fill="white"/>
</svg>
