<svg width="176" height="66" viewBox="0 0 176 66" fill="none" xmlns="http://www.w3.org/2000/svg">
<rect width="175.576" height="65.366" rx="18.2417" fill="black"/>
<rect x="0.380035" y="0.380035" width="174.816" height="64.6059" rx="17.8616" stroke="white" stroke-opacity="0.5" stroke-width="0.76007"/>
<path d="M35.1763 35.8248C35.1763 35.4908 35.1244 35.1939 35.0205 34.9341C34.924 34.6743 34.7495 34.4368 34.4972 34.2215C34.2448 34.0063 33.8885 33.7985 33.4283 33.598C32.9755 33.3902 32.3966 33.1787 31.6914 32.9634C30.9195 32.7259 30.2069 32.4624 29.5537 32.1729C28.908 31.876 28.3439 31.5346 27.8614 31.1486C27.3789 30.7552 27.0041 30.3061 26.7369 29.8014C26.4697 29.2892 26.3361 28.6992 26.3361 28.0311C26.3361 27.3705 26.4734 26.7693 26.748 26.2274C27.0301 25.6856 27.4272 25.218 27.9393 24.8246C28.4589 24.4238 29.0713 24.1157 29.7764 23.9005C30.4816 23.6778 31.2609 23.5665 32.1145 23.5665C33.317 23.5665 34.3524 23.7891 35.2209 24.2345C36.0967 24.6798 36.7685 25.2774 37.2361 26.027C37.7111 26.7767 37.9487 27.6043 37.9487 28.5099H35.1763C35.1763 27.9755 35.0613 27.5041 34.8312 27.0959C34.6085 26.6802 34.2671 26.3536 33.8069 26.1161C33.3541 25.8786 32.7788 25.7598 32.0811 25.7598C31.4205 25.7598 30.8712 25.86 30.4333 26.0604C29.9954 26.2608 29.6688 26.5318 29.4535 26.8732C29.2383 27.2146 29.1307 27.6006 29.1307 28.0311C29.1307 28.3354 29.2012 28.6138 29.3422 28.8662C29.4832 29.1111 29.6985 29.3412 29.988 29.5565C30.2774 29.7643 30.6411 29.961 31.0791 30.1466C31.517 30.3321 32.0329 30.5103 32.6267 30.681C33.5248 30.9482 34.3079 31.2451 34.9759 31.5717C35.6439 31.8909 36.2006 32.2546 36.646 32.6628C37.0913 33.071 37.4254 33.535 37.648 34.0545C37.8707 34.5667 37.9821 35.1494 37.9821 35.8025C37.9821 36.4854 37.8447 37.1015 37.5701 37.6508C37.2955 38.1926 36.9021 38.6565 36.3899 39.0425C35.8852 39.421 35.2765 39.7142 34.564 39.9221C33.8588 40.1225 33.072 40.2227 32.2036 40.2227C31.4242 40.2227 30.656 40.1188 29.8989 39.9109C29.1492 39.7031 28.4663 39.3876 27.8503 38.9646C27.2342 38.534 26.7443 37.9996 26.3806 37.3613C26.0169 36.7155 25.835 35.9621 25.835 35.1011H28.6296C28.6296 35.6281 28.7187 36.0772 28.8968 36.4483C29.0824 36.8194 29.3385 37.1238 29.6651 37.3613C29.9917 37.5914 30.3702 37.7621 30.8007 37.8734C31.2387 37.9848 31.7063 38.0404 32.2036 38.0404C32.8568 38.0404 33.4023 37.9477 33.8403 37.7621C34.2856 37.5765 34.6196 37.3167 34.8423 36.9827C35.065 36.6487 35.1763 36.2627 35.1763 35.8248ZM42.8921 22.8984V40H40.1977V22.8984H42.8921ZM50.374 27.9532L45.13 33.7651L42.2574 36.7044L41.556 34.4331L43.7271 31.7498L47.1341 27.9532H50.374ZM47.713 40L43.8051 34.344L45.4974 32.4624L50.8194 40H47.713ZM54.95 27.9532V40H52.2556V27.9532H54.95ZM52.0775 24.7912C52.0775 24.3829 52.2111 24.0452 52.4783 23.778C52.7529 23.5034 53.1315 23.366 53.614 23.366C54.089 23.366 54.4638 23.5034 54.7385 23.778C55.0131 24.0452 55.1504 24.3829 55.1504 24.7912C55.1504 25.192 55.0131 25.526 54.7385 25.7932C54.4638 26.0604 54.089 26.194 53.614 26.194C53.1315 26.194 52.7529 26.0604 52.4783 25.7932C52.2111 25.526 52.0775 25.192 52.0775 24.7912ZM60.5837 30.269V44.6317H57.9005V27.9532H60.3722L60.5837 30.269ZM68.4331 33.8653V34.0991C68.4331 34.9749 68.3292 35.7877 68.1214 36.5374C67.9209 37.2796 67.6203 37.9291 67.2195 38.4858C66.8261 39.0351 66.3399 39.4619 65.761 39.7662C65.182 40.0705 64.514 40.2227 63.7569 40.2227C63.0072 40.2227 62.3503 40.0854 61.7862 39.8107C61.2295 39.5287 60.7582 39.1316 60.3722 38.6194C59.9862 38.1072 59.6745 37.506 59.437 36.8157C59.2069 36.118 59.0436 35.3535 58.9471 34.5222V33.6203C59.0436 32.737 59.2069 31.9354 59.437 31.2154C59.6745 30.4954 59.9862 29.8756 60.3722 29.3561C60.7582 28.8365 61.2295 28.4357 61.7862 28.1536C62.3429 27.8715 62.9924 27.7305 63.7346 27.7305C64.4917 27.7305 65.1635 27.879 65.7498 28.1759C66.3362 28.4653 66.8298 28.881 67.2306 29.4229C67.6315 29.9573 67.9321 30.603 68.1325 31.3601C68.3329 32.1098 68.4331 32.9449 68.4331 33.8653ZM65.7498 34.0991V33.8653C65.7498 33.3086 65.6979 32.7927 65.594 32.3177C65.4901 31.8352 65.3268 31.4121 65.1041 31.0484C64.8814 30.6847 64.5956 30.4026 64.2468 30.2022C63.9053 29.9944 63.4934 29.8905 63.0109 29.8905C62.5359 29.8905 62.1276 29.9721 61.7862 30.1354C61.4448 30.2913 61.159 30.5103 60.9289 30.7923C60.6988 31.0744 60.5207 31.4047 60.3945 31.7832C60.2683 32.1544 60.1792 32.5589 60.1273 32.9968V35.1568C60.2163 35.6912 60.3685 36.1811 60.5837 36.6264C60.799 37.0718 61.1033 37.4281 61.4967 37.6953C61.8975 37.9551 62.4097 38.085 63.0332 38.085C63.5157 38.085 63.9276 37.9811 64.269 37.7732C64.6105 37.5654 64.8888 37.2796 65.1041 36.9159C65.3268 36.5448 65.4901 36.118 65.594 35.6355C65.6979 35.1531 65.7498 34.6409 65.7498 34.0991ZM81.9162 27.9532V29.9127H75.1245V27.9532H81.9162ZM77.0841 25.0027H79.7674V36.671C79.7674 37.0421 79.8193 37.3279 79.9232 37.5283C80.0346 37.7213 80.1867 37.8512 80.3797 37.918C80.5727 37.9848 80.7991 38.0182 81.0589 38.0182C81.2444 38.0182 81.4226 38.007 81.5933 37.9848C81.764 37.9625 81.9013 37.9402 82.0053 37.918L82.0164 39.9666C81.7937 40.0334 81.5339 40.0928 81.237 40.1447C80.9475 40.1967 80.6135 40.2227 80.235 40.2227C79.6189 40.2227 79.0733 40.115 78.5983 39.8998C78.1233 39.6771 77.7521 39.3171 77.4849 38.8198C77.2177 38.3225 77.0841 37.6619 77.0841 36.838V25.0027ZM86.6369 22.8984V40H83.9648V22.8984H86.6369ZM86.1693 33.5312L85.3009 33.5201C85.3083 32.6888 85.4233 31.9205 85.646 31.2154C85.8761 30.5103 86.1953 29.8979 86.6035 29.3783C87.0192 28.8513 87.5165 28.4468 88.0955 28.1647C88.6744 27.8752 89.3165 27.7305 90.0216 27.7305C90.6154 27.7305 91.1498 27.8122 91.6249 27.9755C92.1074 28.1388 92.523 28.4023 92.8719 28.766C93.2207 29.1222 93.4842 29.5899 93.6624 30.1688C93.8479 30.7404 93.9407 31.4381 93.9407 32.262V40H91.2463V32.2397C91.2463 31.6608 91.161 31.2006 90.9903 30.8591C90.827 30.5177 90.5857 30.2727 90.2666 30.1243C89.9474 29.9684 89.5577 29.8905 89.0975 29.8905C88.615 29.8905 88.1882 29.987 87.8171 30.18C87.4534 30.3729 87.1491 30.6364 86.9041 30.9705C86.6592 31.3045 86.4736 31.6904 86.3474 32.1284C86.2287 32.5663 86.1693 33.0339 86.1693 33.5312ZM101.968 40.2227C101.078 40.2227 100.272 40.0779 99.5522 39.7885C98.8396 39.4916 98.231 39.0796 97.7262 38.5526C97.2289 38.0256 96.8467 37.4058 96.5794 36.6932C96.3122 35.9807 96.1786 35.2124 96.1786 34.3885V33.9432C96.1786 33.0005 96.3159 32.1469 96.5906 31.3824C96.8652 30.6179 97.2475 29.9647 97.7374 29.4229C98.2273 28.8736 98.8062 28.4542 99.4742 28.1647C100.142 27.8752 100.866 27.7305 101.645 27.7305C102.506 27.7305 103.26 27.8752 103.906 28.1647C104.551 28.4542 105.086 28.8625 105.509 29.3895C105.939 29.909 106.258 30.5288 106.466 31.2488C106.682 31.9688 106.789 32.763 106.789 33.6314V34.7782H97.4813V32.8521H104.139V32.6405C104.124 32.1581 104.028 31.7053 103.85 31.2822C103.679 30.8591 103.416 30.5177 103.059 30.2579C102.703 29.9981 102.228 29.8682 101.634 29.8682C101.189 29.8682 100.792 29.9647 100.443 30.1577C100.101 30.3433 99.8157 30.6142 99.5856 30.9705C99.3555 31.3267 99.1773 31.7572 99.0512 32.262C98.9324 32.7593 98.873 33.3197 98.873 33.9432V34.3885C98.873 34.9155 98.9435 35.4054 99.0846 35.8582C99.233 36.3036 99.4483 36.6932 99.7303 37.0273C100.012 37.3613 100.354 37.6248 100.755 37.8178C101.155 38.0033 101.612 38.0961 102.124 38.0961C102.77 38.0961 103.345 37.9662 103.85 37.7064C104.355 37.4466 104.793 37.0792 105.164 36.6042L106.578 37.9736C106.318 38.3522 105.98 38.7159 105.564 39.0648C105.149 39.4062 104.64 39.6845 104.039 39.8998C103.445 40.115 102.755 40.2227 101.968 40.2227ZM117.433 22.8984V40H114.739V22.8984H117.433ZM123.245 27.9532V40H120.551V27.9532H123.245ZM120.372 24.7912C120.372 24.3829 120.506 24.0452 120.773 23.778C121.048 23.5034 121.426 23.366 121.909 23.366C122.384 23.366 122.759 23.5034 123.033 23.778C123.308 24.0452 123.445 24.3829 123.445 24.7912C123.445 25.192 123.308 25.526 123.033 25.7932C122.759 26.0604 122.384 26.194 121.909 26.194C121.426 26.194 121.048 26.0604 120.773 25.7932C120.506 25.526 120.372 25.192 120.372 24.7912ZM128.845 30.5251V40H126.162V27.9532H128.689L128.845 30.5251ZM128.367 33.5312L127.498 33.5201C127.506 32.6665 127.624 31.8834 127.854 31.1709C128.092 30.4583 128.419 29.8459 128.834 29.3338C129.257 28.8216 129.762 28.4282 130.348 28.1536C130.935 27.8715 131.588 27.7305 132.308 27.7305C132.887 27.7305 133.41 27.8122 133.878 27.9755C134.353 28.1313 134.757 28.3874 135.091 28.7437C135.433 29.1 135.693 29.5639 135.871 30.1354C136.049 30.6995 136.138 31.3935 136.138 32.2174V40H133.444V32.2063C133.444 31.6274 133.358 31.1709 133.188 30.8369C133.024 30.4954 132.783 30.2542 132.464 30.1132C132.152 29.9647 131.762 29.8905 131.295 29.8905C130.835 29.8905 130.423 29.987 130.059 30.18C129.695 30.3729 129.387 30.6364 129.135 30.9705C128.89 31.3045 128.701 31.6904 128.567 32.1284C128.433 32.5663 128.367 33.0339 128.367 33.5312ZM144.188 40.2227C143.297 40.2227 142.492 40.0779 141.772 39.7885C141.059 39.4916 140.45 39.0796 139.946 38.5526C139.448 38.0256 139.066 37.4058 138.799 36.6932C138.532 35.9807 138.398 35.2124 138.398 34.3885V33.9432C138.398 33.0005 138.535 32.1469 138.81 31.3824C139.085 30.6179 139.467 29.9647 139.957 29.4229C140.447 28.8736 141.026 28.4542 141.694 28.1647C142.362 27.8752 143.085 27.7305 143.865 27.7305C144.726 27.7305 145.479 27.8752 146.125 28.1647C146.771 28.4542 147.305 28.8625 147.728 29.3895C148.159 29.909 148.478 30.5288 148.686 31.2488C148.901 31.9688 149.009 32.763 149.009 33.6314V34.7782H139.701V32.8521H146.359V32.6405C146.344 32.1581 146.248 31.7053 146.069 31.2822C145.899 30.8591 145.635 30.5177 145.279 30.2579C144.923 29.9981 144.448 29.8682 143.854 29.8682C143.408 29.8682 143.011 29.9647 142.662 30.1577C142.321 30.3433 142.035 30.6142 141.805 30.9705C141.575 31.3267 141.397 31.7572 141.271 32.262C141.152 32.7593 141.093 33.3197 141.093 33.9432V34.3885C141.093 34.9155 141.163 35.4054 141.304 35.8582C141.453 36.3036 141.668 36.6932 141.95 37.0273C142.232 37.3613 142.573 37.6248 142.974 37.8178C143.375 38.0033 143.831 38.0961 144.344 38.0961C144.989 38.0961 145.565 37.9662 146.069 37.7064C146.574 37.4466 147.012 37.0792 147.383 36.6042L148.797 37.9736C148.537 38.3522 148.2 38.7159 147.784 39.0648C147.368 39.4062 146.86 39.6845 146.259 39.8998C145.665 40.115 144.975 40.2227 144.188 40.2227Z" fill="white"/>
</svg>
