<svg width="267" height="99" viewBox="0 0 267 99" fill="none" xmlns="http://www.w3.org/2000/svg">
<rect width="266.785" height="98.8091" rx="18.2417" fill="black"/>
<rect x="0.380035" y="0.380035" width="266.025" height="98.049" rx="17.8616" stroke="white" stroke-opacity="0.5" stroke-width="0.76007"/>
<path d="M36.5074 27.7891V44H33.7128L26.4424 32.3874V44H23.6478V27.7891H26.4424L33.7351 39.424V27.7891H36.5074ZM39.057 38.1102V37.8541C39.057 36.9857 39.1832 36.1803 39.4356 35.4381C39.688 34.6884 40.0517 34.0389 40.5267 33.4897C41.0092 32.933 41.5956 32.5025 42.2859 32.1981C42.9836 31.8864 43.7704 31.7305 44.6462 31.7305C45.5295 31.7305 46.3163 31.8864 47.0066 32.1981C47.7043 32.5025 48.2944 32.933 48.7769 33.4897C49.2593 34.0389 49.6268 34.6884 49.8791 35.4381C50.1315 36.1803 50.2577 36.9857 50.2577 37.8541V38.1102C50.2577 38.9786 50.1315 39.784 49.8791 40.5262C49.6268 41.2685 49.2593 41.918 48.7769 42.4747C48.2944 43.0239 47.708 43.4544 47.0177 43.7662C46.3274 44.0705 45.5444 44.2227 44.6685 44.2227C43.7852 44.2227 42.9947 44.0705 42.297 43.7662C41.6067 43.4544 41.0203 43.0239 40.5378 42.4747C40.0554 41.918 39.688 41.2685 39.4356 40.5262C39.1832 39.784 39.057 38.9786 39.057 38.1102ZM41.7403 37.8541V38.1102C41.7403 38.652 41.796 39.1642 41.9073 39.6467C42.0186 40.1291 42.1931 40.5522 42.4306 40.9159C42.6681 41.2796 42.9724 41.5654 43.3436 41.7732C43.7147 41.9811 44.1563 42.085 44.6685 42.085C45.1658 42.085 45.5963 41.9811 45.96 41.7732C46.3311 41.5654 46.6355 41.2796 46.873 40.9159C47.1105 40.5522 47.2849 40.1291 47.3963 39.6467C47.515 39.1642 47.5744 38.652 47.5744 38.1102V37.8541C47.5744 37.3197 47.515 36.815 47.3963 36.3399C47.2849 35.8575 47.1068 35.4307 46.8619 35.0595C46.6243 34.6884 46.32 34.3989 45.9489 34.1911C45.5852 33.9758 45.151 33.8682 44.6462 33.8682C44.1415 33.8682 43.7036 33.9758 43.3324 34.1911C42.9687 34.3989 42.6681 34.6884 42.4306 35.0595C42.1931 35.4307 42.0186 35.8575 41.9073 36.3399C41.796 36.815 41.7403 37.3197 41.7403 37.8541ZM60.8682 34.4026V44H58.185V31.9532H60.7124L60.8682 34.4026ZM60.434 37.5312L59.521 37.5201C59.521 36.6888 59.625 35.9205 59.8328 35.2154C60.0406 34.5103 60.3449 33.8979 60.7458 33.3783C61.1466 32.8513 61.6439 32.4468 62.2377 32.1647C62.8389 31.8752 63.5329 31.7305 64.3197 31.7305C64.869 31.7305 65.37 31.8122 65.8228 31.9755C66.283 32.1313 66.6801 32.38 67.0141 32.7214C67.3555 33.0629 67.6153 33.5008 67.7935 34.0352C67.979 34.5696 68.0718 35.2154 68.0718 35.9725V44H65.3886V36.2063C65.3886 35.6199 65.2995 35.1597 65.1214 34.8257C64.9506 34.4917 64.702 34.2542 64.3754 34.1132C64.0562 33.9647 63.674 33.8905 63.2286 33.8905C62.7239 33.8905 62.2934 33.987 61.9371 34.18C61.5882 34.3729 61.3024 34.6364 61.0798 34.9705C60.8571 35.3045 60.6938 35.6904 60.5899 36.1284C60.486 36.5663 60.434 37.0339 60.434 37.5312ZM67.9048 36.8187L66.6467 37.097C66.6467 36.3696 66.7469 35.683 66.9473 35.0373C67.1551 34.3841 67.4558 33.8125 67.8491 33.3226C68.25 32.8253 68.7436 32.4357 69.3299 32.1536C69.9163 31.8715 70.5881 31.7305 71.3452 31.7305C71.9612 31.7305 72.5105 31.8159 72.993 31.9866C73.4829 32.1499 73.8985 32.4097 74.24 32.766C74.5814 33.1222 74.8412 33.5861 75.0193 34.1577C75.1975 34.7218 75.2866 35.4047 75.2866 36.2063V44H72.5922V36.1952C72.5922 35.5865 72.5031 35.1152 72.3249 34.7812C72.1542 34.4472 71.9093 34.2171 71.5901 34.0909C71.2709 33.9573 70.8887 33.8905 70.4433 33.8905C70.0277 33.8905 69.6603 33.9684 69.3411 34.1243C69.0293 34.2727 68.7658 34.4843 68.5506 34.7589C68.3353 35.0261 68.172 35.3342 68.0607 35.683C67.9568 36.0319 67.9048 36.4104 67.9048 36.8187ZM77.5356 38.1102V37.8541C77.5356 36.9857 77.6618 36.1803 77.9141 35.4381C78.1665 34.6884 78.5302 34.0389 79.0053 33.4897C79.4877 32.933 80.0741 32.5025 80.7644 32.1981C81.4621 31.8864 82.2489 31.7305 83.1248 31.7305C84.0081 31.7305 84.7948 31.8864 85.4851 32.1981C86.1829 32.5025 86.773 32.933 87.2554 33.4897C87.7379 34.0389 88.1053 34.6884 88.3577 35.4381C88.61 36.1803 88.7362 36.9857 88.7362 37.8541V38.1102C88.7362 38.9786 88.61 39.784 88.3577 40.5262C88.1053 41.2685 87.7379 41.918 87.2554 42.4747C86.773 43.0239 86.1866 43.4544 85.4963 43.7662C84.806 44.0705 84.0229 44.2227 83.147 44.2227C82.2638 44.2227 81.4733 44.0705 80.7755 43.7662C80.0852 43.4544 79.4989 43.0239 79.0164 42.4747C78.5339 41.918 78.1665 41.2685 77.9141 40.5262C77.6618 39.784 77.5356 38.9786 77.5356 38.1102ZM80.2188 37.8541V38.1102C80.2188 38.652 80.2745 39.1642 80.3858 39.6467C80.4972 40.1291 80.6716 40.5522 80.9091 40.9159C81.1467 41.2796 81.451 41.5654 81.8221 41.7732C82.1932 41.9811 82.6349 42.085 83.147 42.085C83.6444 42.085 84.0749 41.9811 84.4386 41.7732C84.8097 41.5654 85.114 41.2796 85.3515 40.9159C85.5891 40.5522 85.7635 40.1291 85.8748 39.6467C85.9936 39.1642 86.053 38.652 86.053 38.1102V37.8541C86.053 37.3197 85.9936 36.815 85.8748 36.3399C85.7635 35.8575 85.5853 35.4307 85.3404 35.0595C85.1029 34.6884 84.7986 34.3989 84.4274 34.1911C84.0637 33.9758 83.6295 33.8682 83.1248 33.8682C82.62 33.8682 82.1821 33.9758 81.811 34.1911C81.4473 34.3989 81.1467 34.6884 80.9091 35.0595C80.6716 35.4307 80.4972 35.8575 80.3858 36.3399C80.2745 36.815 80.2188 37.3197 80.2188 37.8541ZM93.6797 34.2468V44H90.9964V31.9532H93.5572L93.6797 34.2468ZM97.365 31.8752L97.3427 34.3692C97.1794 34.3395 97.0012 34.3173 96.8083 34.3024C96.6227 34.2876 96.4371 34.2802 96.2516 34.2802C95.7914 34.2802 95.3868 34.347 95.038 34.4806C94.6891 34.6068 94.3959 34.7923 94.1584 35.0373C93.9283 35.2748 93.7502 35.5643 93.624 35.9057C93.4978 36.2471 93.4236 36.6294 93.4013 37.0525L92.7889 37.097C92.7889 36.3399 92.8632 35.6385 93.0116 34.9927C93.1601 34.347 93.3828 33.7791 93.6797 33.2892C93.984 32.7994 94.3625 32.4171 94.8153 32.1425C95.2755 31.8678 95.8062 31.7305 96.4074 31.7305C96.5707 31.7305 96.7452 31.7454 96.9307 31.775C97.1237 31.8047 97.2685 31.8381 97.365 31.8752ZM104.134 44.2227C103.244 44.2227 102.438 44.0779 101.718 43.7885C101.006 43.4916 100.397 43.0796 99.8923 42.5526C99.395 42.0256 99.0128 41.4058 98.7455 40.6932C98.4783 39.9807 98.3447 39.2124 98.3447 38.3885V37.9432C98.3447 37.0005 98.482 36.1469 98.7567 35.3824C99.0313 34.6179 99.4136 33.9647 99.9035 33.4229C100.393 32.8736 100.972 32.4542 101.64 32.1647C102.308 31.8752 103.032 31.7305 103.811 31.7305C104.672 31.7305 105.426 31.8752 106.072 32.1647C106.717 32.4542 107.252 32.8625 107.675 33.3895C108.105 33.909 108.425 34.5288 108.632 35.2488C108.848 35.9688 108.955 36.763 108.955 37.6314V38.7782H99.6474V36.8521H106.305V36.6405C106.291 36.1581 106.194 35.7053 106.016 35.2822C105.845 34.8591 105.582 34.5177 105.225 34.2579C104.869 33.9981 104.394 33.8682 103.8 33.8682C103.355 33.8682 102.958 33.9647 102.609 34.1577C102.268 34.3433 101.982 34.6142 101.752 34.9705C101.522 35.3267 101.343 35.7572 101.217 36.262C101.098 36.7593 101.039 37.3197 101.039 37.9432V38.3885C101.039 38.9155 101.11 39.4054 101.251 39.8582C101.399 40.3036 101.614 40.6932 101.896 41.0273C102.178 41.3613 102.52 41.6248 102.921 41.8178C103.322 42.0033 103.778 42.0961 104.29 42.0961C104.936 42.0961 105.511 41.9662 106.016 41.7064C106.521 41.4466 106.959 41.0792 107.33 40.6042L108.744 41.9736C108.484 42.3522 108.146 42.7159 107.731 43.0648C107.315 43.4062 106.806 43.6845 106.205 43.8998C105.611 44.115 104.921 44.2227 104.134 44.2227ZM119.599 26.8984V44H116.905V26.8984H119.599ZM122.026 38.1102V37.8541C122.026 36.9857 122.153 36.1803 122.405 35.4381C122.657 34.6884 123.021 34.0389 123.496 33.4897C123.979 32.933 124.565 32.5025 125.255 32.1981C125.953 31.8864 126.74 31.7305 127.616 31.7305C128.499 31.7305 129.286 31.8864 129.976 32.1981C130.674 32.5025 131.264 32.933 131.746 33.4897C132.229 34.0389 132.596 34.6884 132.848 35.4381C133.101 36.1803 133.227 36.9857 133.227 37.8541V38.1102C133.227 38.9786 133.101 39.784 132.848 40.5262C132.596 41.2685 132.229 41.918 131.746 42.4747C131.264 43.0239 130.677 43.4544 129.987 43.7662C129.297 44.0705 128.514 44.2227 127.638 44.2227C126.755 44.2227 125.964 44.0705 125.266 43.7662C124.576 43.4544 123.99 43.0239 123.507 42.4747C123.025 41.918 122.657 41.2685 122.405 40.5262C122.153 39.784 122.026 38.9786 122.026 38.1102ZM124.71 37.8541V38.1102C124.71 38.652 124.765 39.1642 124.877 39.6467C124.988 40.1291 125.162 40.5522 125.4 40.9159C125.637 41.2796 125.942 41.5654 126.313 41.7732C126.684 41.9811 127.126 42.085 127.638 42.085C128.135 42.085 128.566 41.9811 128.929 41.7732C129.301 41.5654 129.605 41.2796 129.842 40.9159C130.08 40.5522 130.254 40.1291 130.366 39.6467C130.484 39.1642 130.544 38.652 130.544 38.1102V37.8541C130.544 37.3197 130.484 36.815 130.366 36.3399C130.254 35.8575 130.076 35.4307 129.831 35.0595C129.594 34.6884 129.289 34.3989 128.918 34.1911C128.555 33.9758 128.12 33.8682 127.616 33.8682C127.111 33.8682 126.673 33.9758 126.302 34.1911C125.938 34.3989 125.637 34.6884 125.4 35.0595C125.162 35.4307 124.988 35.8575 124.877 36.3399C124.765 36.815 124.71 37.3197 124.71 37.8541ZM142.234 40.7378C142.234 40.4706 142.168 40.2293 142.034 40.0141C141.9 39.7914 141.644 39.591 141.266 39.4129C140.895 39.2347 140.345 39.0714 139.618 38.923C138.98 38.7819 138.393 38.6149 137.859 38.4219C137.332 38.2215 136.879 37.9803 136.5 37.6982C136.122 37.4162 135.829 37.0822 135.621 36.6962C135.413 36.3102 135.309 35.8649 135.309 35.3601C135.309 34.8703 135.417 34.4063 135.632 33.9684C135.847 33.5305 136.155 33.1445 136.556 32.8105C136.957 32.4765 137.443 32.213 138.015 32.02C138.594 31.827 139.239 31.7305 139.952 31.7305C140.961 31.7305 141.826 31.9012 142.546 32.2427C143.273 32.5767 143.83 33.0332 144.216 33.6121C144.602 34.1837 144.795 34.8294 144.795 35.5494H142.112C142.112 35.2302 142.03 34.9333 141.867 34.6587C141.711 34.3767 141.474 34.1503 141.154 33.9795C140.835 33.8014 140.434 33.7123 139.952 33.7123C139.492 33.7123 139.109 33.7866 138.805 33.935C138.508 34.076 138.286 34.2616 138.137 34.4917C137.996 34.7218 137.926 34.9742 137.926 35.2488C137.926 35.4492 137.963 35.6311 138.037 35.7944C138.119 35.9502 138.252 36.095 138.438 36.2286C138.623 36.3548 138.876 36.4735 139.195 36.5849C139.521 36.6962 139.93 36.8038 140.42 36.9077C141.34 37.1007 142.13 37.3494 142.791 37.6537C143.459 37.9506 143.971 38.3366 144.327 38.8116C144.684 39.2793 144.862 39.8731 144.862 40.593C144.862 41.1275 144.747 41.6174 144.517 42.0627C144.294 42.5006 143.967 42.8829 143.537 43.2095C143.106 43.5287 142.591 43.7773 141.989 43.9555C141.396 44.1336 140.728 44.2227 139.985 44.2227C138.894 44.2227 137.97 44.0297 137.213 43.6437C136.456 43.2503 135.881 42.7493 135.487 42.1406C135.101 41.5246 134.908 40.8862 134.908 40.2256H137.502C137.532 40.7229 137.669 41.12 137.914 41.4169C138.167 41.7064 138.479 41.918 138.85 42.0516C139.228 42.1778 139.618 42.2409 140.019 42.2409C140.501 42.2409 140.906 42.1778 141.232 42.0516C141.559 41.918 141.808 41.7398 141.978 41.5172C142.149 41.2871 142.234 41.0273 142.234 40.7378ZM152.734 31.9532V33.9127H145.942V31.9532H152.734ZM147.901 29.0027H150.585V40.671C150.585 41.0421 150.637 41.3279 150.741 41.5283C150.852 41.7213 151.004 41.8512 151.197 41.918C151.39 41.9848 151.616 42.0182 151.876 42.0182C152.062 42.0182 152.24 42.007 152.411 41.9848C152.581 41.9625 152.719 41.9402 152.823 41.918L152.834 43.9666C152.611 44.0334 152.351 44.0928 152.054 44.1447C151.765 44.1967 151.431 44.2227 151.052 44.2227C150.436 44.2227 149.891 44.115 149.416 43.8998C148.941 43.6771 148.569 43.3171 148.302 42.8198C148.035 42.3225 147.901 41.6619 147.901 40.838V29.0027ZM159.971 38.1102V37.8541C159.971 36.9857 160.097 36.1803 160.349 35.4381C160.601 34.6884 160.965 34.0389 161.44 33.4897C161.923 32.933 162.509 32.5025 163.199 32.1981C163.897 31.8864 164.684 31.7305 165.56 31.7305C166.443 31.7305 167.23 31.8864 167.92 32.1981C168.618 32.5025 169.208 32.933 169.69 33.4897C170.173 34.0389 170.54 34.6884 170.793 35.4381C171.045 36.1803 171.171 36.9857 171.171 37.8541V38.1102C171.171 38.9786 171.045 39.784 170.793 40.5262C170.54 41.2685 170.173 41.918 169.69 42.4747C169.208 43.0239 168.622 43.4544 167.931 43.7662C167.241 44.0705 166.458 44.2227 165.582 44.2227C164.699 44.2227 163.908 44.0705 163.21 43.7662C162.52 43.4544 161.934 43.0239 161.451 42.4747C160.969 41.918 160.601 41.2685 160.349 40.5262C160.097 39.784 159.971 38.9786 159.971 38.1102ZM162.654 37.8541V38.1102C162.654 38.652 162.709 39.1642 162.821 39.6467C162.932 40.1291 163.107 40.5522 163.344 40.9159C163.582 41.2796 163.886 41.5654 164.257 41.7732C164.628 41.9811 165.07 42.085 165.582 42.085C166.079 42.085 166.51 41.9811 166.874 41.7732C167.245 41.5654 167.549 41.2796 167.786 40.9159C168.024 40.5522 168.198 40.1291 168.31 39.6467C168.429 39.1642 168.488 38.652 168.488 38.1102V37.8541C168.488 37.3197 168.429 36.815 168.31 36.3399C168.198 35.8575 168.02 35.4307 167.775 35.0595C167.538 34.6884 167.233 34.3989 166.862 34.1911C166.499 33.9758 166.064 33.8682 165.56 33.8682C165.055 33.8682 164.617 33.9758 164.246 34.1911C163.882 34.3989 163.582 34.6884 163.344 35.0595C163.107 35.4307 162.932 35.8575 162.821 36.3399C162.709 36.815 162.654 37.3197 162.654 37.8541ZM176.115 34.2468V44H173.431V31.9532H175.992L176.115 34.2468ZM179.8 31.8752L179.778 34.3692C179.614 34.3395 179.436 34.3173 179.243 34.3024C179.058 34.2876 178.872 34.2802 178.687 34.2802C178.226 34.2802 177.822 34.347 177.473 34.4806C177.124 34.6068 176.831 34.7923 176.593 35.0373C176.363 35.2748 176.185 35.5643 176.059 35.9057C175.933 36.2471 175.859 36.6294 175.836 37.0525L175.224 37.097C175.224 36.3399 175.298 35.6385 175.447 34.9927C175.595 34.347 175.818 33.7791 176.115 33.2892C176.419 32.7994 176.797 32.4171 177.25 32.1425C177.71 31.8678 178.241 31.7305 178.842 31.7305C179.006 31.7305 179.18 31.7454 179.366 31.775C179.559 31.8047 179.703 31.8381 179.8 31.8752ZM27.0102 71H24.327V57.7953C24.327 56.8971 24.494 56.1437 24.828 55.5351C25.1694 54.919 25.6556 54.4551 26.2865 54.1434C26.9174 53.8242 27.6634 53.6646 28.5244 53.6646C28.7916 53.6646 29.0551 53.6832 29.3149 53.7203C29.5747 53.75 29.8271 53.7982 30.072 53.865L30.0052 55.9359C29.8568 55.8988 29.6935 55.8728 29.5153 55.858C29.3446 55.8431 29.1591 55.8357 28.9586 55.8357C28.5504 55.8357 28.1978 55.9136 27.9009 56.0695C27.6115 56.218 27.3888 56.4369 27.2329 56.7264C27.0845 57.0159 27.0102 57.3722 27.0102 57.7953V71ZM29.4931 58.9532V60.9127H22.4788V58.9532H29.4931ZM30.9293 65.1102V64.8541C30.9293 63.9857 31.0555 63.1803 31.3079 62.4381C31.5603 61.6884 31.924 61.0389 32.399 60.4897C32.8815 59.933 33.4679 59.5025 34.1582 59.1981C34.8559 58.8864 35.6427 58.7305 36.5185 58.7305C37.4018 58.7305 38.1886 58.8864 38.8789 59.1981C39.5766 59.5025 40.1667 59.933 40.6492 60.4897C41.1316 61.0389 41.4991 61.6884 41.7514 62.4381C42.0038 63.1803 42.13 63.9857 42.13 64.8541V65.1102C42.13 65.9786 42.0038 66.784 41.7514 67.5262C41.4991 68.2685 41.1316 68.918 40.6492 69.4747C40.1667 70.0239 39.5803 70.4544 38.89 70.7662C38.1997 71.0705 37.4167 71.2227 36.5408 71.2227C35.6575 71.2227 34.867 71.0705 34.1693 70.7662C33.479 70.4544 32.8926 70.0239 32.4101 69.4747C31.9277 68.918 31.5603 68.2685 31.3079 67.5262C31.0555 66.784 30.9293 65.9786 30.9293 65.1102ZM33.6126 64.8541V65.1102C33.6126 65.652 33.6683 66.1642 33.7796 66.6467C33.8909 67.1291 34.0654 67.5522 34.3029 67.9159C34.5404 68.2796 34.8447 68.5654 35.2159 68.7732C35.587 68.9811 36.0286 69.085 36.5408 69.085C37.0381 69.085 37.4686 68.9811 37.8323 68.7732C38.2034 68.5654 38.5078 68.2796 38.7453 67.9159C38.9828 67.5522 39.1572 67.1291 39.2686 66.6467C39.3873 66.1642 39.4467 65.652 39.4467 65.1102V64.8541C39.4467 64.3197 39.3873 63.815 39.2686 63.3399C39.1572 62.8575 38.9791 62.4307 38.7342 62.0595C38.4966 61.6884 38.1923 61.3989 37.8212 61.1911C37.4575 60.9758 37.0233 60.8682 36.5185 60.8682C36.0138 60.8682 35.5759 60.9758 35.2047 61.1911C34.841 61.3989 34.5404 61.6884 34.3029 62.0595C34.0654 62.4307 33.8909 62.8575 33.7796 63.3399C33.6683 63.815 33.6126 64.3197 33.6126 64.8541ZM47.0734 61.2468V71H44.3901V58.9532H46.9509L47.0734 61.2468ZM50.7587 58.8752L50.7364 61.3692C50.5731 61.3395 50.395 61.3173 50.202 61.3024C50.0164 61.2876 49.8309 61.2802 49.6453 61.2802C49.1851 61.2802 48.7806 61.347 48.4317 61.4806C48.0829 61.6068 47.7897 61.7923 47.5522 62.0373C47.3221 62.2748 47.1439 62.5643 47.0177 62.9057C46.8916 63.2471 46.8173 63.6294 46.7951 64.0525L46.1827 64.097C46.1827 63.3399 46.2569 62.6385 46.4054 61.9927C46.5538 61.347 46.7765 60.7791 47.0734 60.2892C47.3777 59.7994 47.7563 59.4171 48.2091 59.1425C48.6693 58.8678 49.2 58.7305 49.8012 58.7305C49.9645 58.7305 50.1389 58.7454 50.3245 58.775C50.5175 58.8047 50.6622 58.8381 50.7587 58.8752ZM59.933 58.9532H62.3713V70.666C62.3713 71.7497 62.1412 72.6701 61.681 73.4272C61.2208 74.1843 60.5787 74.7595 59.7548 75.1529C58.9309 75.5537 57.9771 75.7541 56.8934 75.7541C56.4333 75.7541 55.9211 75.6873 55.357 75.5537C54.8003 75.4201 54.2584 75.2049 53.7314 74.908C53.2119 74.6185 52.7776 74.2362 52.4288 73.7612L53.6869 72.1802C54.1174 72.6923 54.5925 73.0672 55.112 73.3047C55.6316 73.5422 56.1772 73.661 56.7487 73.661C57.3648 73.661 57.8881 73.5459 58.3186 73.3158C58.7565 73.0932 59.0942 72.7629 59.3318 72.3249C59.5693 71.887 59.688 71.3526 59.688 70.7217V61.681L59.933 58.9532ZM51.7496 65.1102V64.8764C51.7496 63.9634 51.861 63.1321 52.0836 62.3824C52.3063 61.6253 52.6255 60.9758 53.0411 60.434C53.4568 59.8847 53.9615 59.4653 54.5553 59.1759C55.1491 58.879 55.8209 58.7305 56.5706 58.7305C57.3499 58.7305 58.0143 58.8715 58.5635 59.1536C59.1202 59.4357 59.5841 59.8402 59.9553 60.3672C60.3264 60.8868 60.6159 61.5103 60.8237 62.2377C61.0389 62.9577 61.1985 63.7593 61.3024 64.6426V65.3885C61.206 66.2496 61.0427 67.0364 60.8126 67.7489C60.5825 68.4615 60.2781 69.0776 59.8996 69.5971C59.521 70.1167 59.0534 70.5175 58.4967 70.7996C57.9475 71.0816 57.298 71.2227 56.5483 71.2227C55.8135 71.2227 55.1491 71.0705 54.5553 70.7662C53.969 70.4619 53.4642 70.0351 53.0411 69.4858C52.6255 68.9365 52.3063 68.2908 52.0836 67.5485C51.861 66.7988 51.7496 65.9861 51.7496 65.1102ZM54.4329 64.8764V65.1102C54.4329 65.6595 54.4848 66.1716 54.5887 66.6467C54.7001 67.1217 54.8671 67.5411 55.0898 67.9048C55.3199 68.2611 55.6093 68.5431 55.9582 68.751C56.3145 68.9514 56.7339 69.0516 57.2163 69.0516C57.8472 69.0516 58.3631 68.918 58.7639 68.6508C59.1722 68.3835 59.4839 68.0236 59.6992 67.5708C59.9219 67.1106 60.0777 66.5984 60.1668 66.0343V64.0191C60.1223 63.5812 60.0295 63.1729 59.8885 62.7944C59.7548 62.4158 59.573 62.0855 59.3429 61.8034C59.1128 61.514 58.8233 61.2913 58.4745 61.1354C58.1256 60.9721 57.7136 60.8905 57.2386 60.8905C56.7561 60.8905 56.3368 60.9944 55.9805 61.2022C55.6242 61.4101 55.331 61.6958 55.1009 62.0595C54.8782 62.4232 54.7112 62.8463 54.5999 63.3288C54.4885 63.8113 54.4329 64.3271 54.4329 64.8764ZM64.6426 65.1102V64.8541C64.6426 63.9857 64.7688 63.1803 65.0212 62.4381C65.2735 61.6884 65.6372 61.0389 66.1123 60.4897C66.5947 59.933 67.1811 59.5025 67.8714 59.1981C68.5691 58.8864 69.3559 58.7305 70.2318 58.7305C71.1151 58.7305 71.9019 58.8864 72.5922 59.1981C73.2899 59.5025 73.88 59.933 74.3624 60.4897C74.8449 61.0389 75.2123 61.6884 75.4647 62.4381C75.7171 63.1803 75.8432 63.9857 75.8432 64.8541V65.1102C75.8432 65.9786 75.7171 66.784 75.4647 67.5262C75.2123 68.2685 74.8449 68.918 74.3624 69.4747C73.88 70.0239 73.2936 70.4544 72.6033 70.7662C71.913 71.0705 71.1299 71.2227 70.2541 71.2227C69.3708 71.2227 68.5803 71.0705 67.8825 70.7662C67.1923 70.4544 66.6059 70.0239 66.1234 69.4747C65.6409 68.918 65.2735 68.2685 65.0212 67.5262C64.7688 66.784 64.6426 65.9786 64.6426 65.1102ZM67.3259 64.8541V65.1102C67.3259 65.652 67.3815 66.1642 67.4929 66.6467C67.6042 67.1291 67.7786 67.5522 68.0162 67.9159C68.2537 68.2796 68.558 68.5654 68.9291 68.7732C69.3003 68.9811 69.7419 69.085 70.2541 69.085C70.7514 69.085 71.1819 68.9811 71.5456 68.7732C71.9167 68.5654 72.221 68.2796 72.4586 67.9159C72.6961 67.5522 72.8705 67.1291 72.9818 66.6467C73.1006 66.1642 73.16 65.652 73.16 65.1102V64.8541C73.16 64.3197 73.1006 63.815 72.9818 63.3399C72.8705 62.8575 72.6924 62.4307 72.4474 62.0595C72.2099 61.6884 71.9056 61.3989 71.5344 61.1911C71.1707 60.9758 70.7365 60.8682 70.2318 60.8682C69.7271 60.8682 69.2891 60.9758 68.918 61.1911C68.5543 61.3989 68.2537 61.6884 68.0162 62.0595C67.7786 62.4307 67.6042 62.8575 67.4929 63.3399C67.3815 63.815 67.3259 64.3197 67.3259 64.8541ZM83.6147 58.9532V60.9127H76.823V58.9532H83.6147ZM78.7826 56.0027H81.4658V67.671C81.4658 68.0421 81.5178 68.3279 81.6217 68.5283C81.733 68.7213 81.8852 68.8512 82.0782 68.918C82.2712 68.9848 82.4976 69.0182 82.7574 69.0182C82.9429 69.0182 83.1211 69.007 83.2918 68.9848C83.4625 68.9625 83.5998 68.9402 83.7037 68.918L83.7149 70.9666C83.4922 71.0334 83.2324 71.0928 82.9355 71.1447C82.646 71.1967 82.312 71.2227 81.9335 71.2227C81.3174 71.2227 80.7718 71.115 80.2968 70.8998C79.8217 70.6771 79.4506 70.3171 79.1834 69.8198C78.9162 69.3225 78.7826 68.6619 78.7826 67.838V56.0027ZM91.2079 58.9532V60.9127H84.4163V58.9532H91.2079ZM86.3759 56.0027H89.0591V67.671C89.0591 68.0421 89.1111 68.3279 89.215 68.5283C89.3263 68.7213 89.4785 68.8512 89.6715 68.918C89.8645 68.9848 90.0908 69.0182 90.3506 69.0182C90.5362 69.0182 90.7143 69.007 90.8851 68.9848C91.0558 68.9625 91.1931 68.9402 91.297 68.918L91.3081 70.9666C91.0855 71.0334 90.8257 71.0928 90.5288 71.1447C90.2393 71.1967 89.9053 71.2227 89.5267 71.2227C88.9107 71.2227 88.3651 71.115 87.8901 70.8998C87.415 70.6771 87.0439 70.3171 86.7767 69.8198C86.5095 69.3225 86.3759 68.6619 86.3759 67.838V56.0027ZM98.5897 71.2227C97.699 71.2227 96.8936 71.0779 96.1736 70.7885C95.4611 70.4916 94.8524 70.0796 94.3477 69.5526C93.8504 69.0256 93.4681 68.4058 93.2009 67.6932C92.9337 66.9807 92.8001 66.2124 92.8001 65.3885V64.9432C92.8001 64.0005 92.9374 63.1469 93.212 62.3824C93.4867 61.6179 93.8689 60.9647 94.3588 60.4229C94.8487 59.8736 95.4277 59.4542 96.0957 59.1647C96.7637 58.8752 97.4874 58.7305 98.2668 58.7305C99.1278 58.7305 99.8812 58.8752 100.527 59.1647C101.173 59.4542 101.707 59.8625 102.13 60.3895C102.561 60.909 102.88 61.5288 103.088 62.2488C103.303 62.9688 103.411 63.763 103.411 64.6314V65.7782H94.1027V63.8521H100.761V63.6405C100.746 63.1581 100.649 62.7053 100.471 62.2822C100.301 61.8591 100.037 61.5177 99.6808 61.2579C99.3245 60.9981 98.8495 60.8682 98.2557 60.8682C97.8103 60.8682 97.4132 60.9647 97.0643 61.1577C96.7229 61.3433 96.4371 61.6142 96.207 61.9705C95.9769 62.3267 95.7988 62.7572 95.6726 63.262C95.5538 63.7593 95.4945 64.3197 95.4945 64.9432V65.3885C95.4945 65.9155 95.565 66.4054 95.706 66.8582C95.8545 67.3036 96.0697 67.6932 96.3518 68.0273C96.6338 68.3613 96.9753 68.6248 97.3761 68.8178C97.7769 69.0033 98.2334 69.0961 98.7455 69.0961C99.3913 69.0961 99.9666 68.9662 100.471 68.7064C100.976 68.4466 101.414 68.0792 101.785 67.6042L103.199 68.9736C102.939 69.3522 102.602 69.7159 102.186 70.0648C101.77 70.4062 101.262 70.6845 100.661 70.8998C100.067 71.115 99.3765 71.2227 98.5897 71.2227ZM108.165 61.5251V71H105.482V58.9532H108.009L108.165 61.5251ZM107.686 64.5312L106.818 64.5201C106.825 63.6665 106.944 62.8834 107.174 62.1709C107.411 61.4583 107.738 60.8459 108.154 60.3338C108.577 59.8216 109.081 59.4282 109.668 59.1536C110.254 58.8715 110.907 58.7305 111.627 58.7305C112.206 58.7305 112.73 58.8122 113.197 58.9755C113.672 59.1313 114.077 59.3874 114.411 59.7437C114.752 60.1 115.012 60.5639 115.19 61.1354C115.368 61.6995 115.457 62.3935 115.457 63.2174V71H112.763V63.2063C112.763 62.6274 112.678 62.1709 112.507 61.8369C112.344 61.4954 112.102 61.2542 111.783 61.1132C111.472 60.9647 111.082 60.8905 110.614 60.8905C110.154 60.8905 109.742 60.987 109.378 61.18C109.015 61.3729 108.707 61.6364 108.454 61.9705C108.209 62.3045 108.02 62.6904 107.886 63.1284C107.753 63.5663 107.686 64.0339 107.686 64.5312ZM128.796 69.085C129.234 69.085 129.627 68.9996 129.976 68.8289C130.332 68.6508 130.618 68.4058 130.833 68.0941C131.056 67.7823 131.178 67.4223 131.201 67.0141H133.728C133.713 67.7935 133.483 68.5023 133.038 69.1406C132.592 69.779 132.002 70.2874 131.267 70.666C130.533 71.0371 129.72 71.2227 128.829 71.2227C127.909 71.2227 127.107 71.0668 126.424 70.7551C125.741 70.4359 125.174 69.998 124.721 69.4413C124.268 68.8846 123.927 68.2425 123.696 67.5151C123.474 66.7877 123.362 66.0083 123.362 65.177V64.7873C123.362 63.956 123.474 63.1766 123.696 62.4492C123.927 61.7144 124.268 61.0686 124.721 60.5119C125.174 59.9552 125.741 59.521 126.424 59.2093C127.107 58.8901 127.905 58.7305 128.818 58.7305C129.783 58.7305 130.629 58.9235 131.357 59.3095C132.084 59.688 132.656 60.2187 133.071 60.9016C133.494 61.5771 133.713 62.3639 133.728 63.262H131.201C131.178 62.8166 131.067 62.4158 130.867 62.0595C130.674 61.6958 130.399 61.4063 130.043 61.1911C129.694 60.9758 129.275 60.8682 128.785 60.8682C128.243 60.8682 127.794 60.9795 127.437 61.2022C127.081 61.4175 126.803 61.7144 126.602 62.0929C126.402 62.4641 126.257 62.8834 126.168 63.3511C126.087 63.8113 126.046 64.29 126.046 64.7873V65.177C126.046 65.6743 126.087 66.1568 126.168 66.6244C126.25 67.092 126.391 67.5114 126.591 67.8825C126.799 68.2462 127.081 68.5394 127.437 68.7621C127.794 68.9774 128.247 69.085 128.796 69.085ZM138.482 61.2468V71H135.799V58.9532H138.36L138.482 61.2468ZM142.168 58.8752L142.145 61.3692C141.982 61.3395 141.804 61.3173 141.611 61.3024C141.425 61.2876 141.24 61.2802 141.054 61.2802C140.594 61.2802 140.189 61.347 139.841 61.4806C139.492 61.6068 139.198 61.7923 138.961 62.0373C138.731 62.2748 138.553 62.5643 138.427 62.9057C138.3 63.2471 138.226 63.6294 138.204 64.0525L137.592 64.097C137.592 63.3399 137.666 62.6385 137.814 61.9927C137.963 61.347 138.185 60.7791 138.482 60.2892C138.787 59.7994 139.165 59.4171 139.618 59.1425C140.078 58.8678 140.609 58.7305 141.21 58.7305C141.373 58.7305 141.548 58.7454 141.733 58.775C141.926 58.8047 142.071 58.8381 142.168 58.8752ZM148.937 71.2227C148.046 71.2227 147.241 71.0779 146.521 70.7885C145.808 70.4916 145.2 70.0796 144.695 69.5526C144.198 69.0256 143.815 68.4058 143.548 67.6932C143.281 66.9807 143.147 66.2124 143.147 65.3885V64.9432C143.147 64.0005 143.285 63.1469 143.559 62.3824C143.834 61.6179 144.216 60.9647 144.706 60.4229C145.196 59.8736 145.775 59.4542 146.443 59.1647C147.111 58.8752 147.835 58.7305 148.614 58.7305C149.475 58.7305 150.228 58.8752 150.874 59.1647C151.52 59.4542 152.054 59.8625 152.477 60.3895C152.908 60.909 153.227 61.5288 153.435 62.2488C153.65 62.9688 153.758 63.763 153.758 64.6314V65.7782H144.45V63.8521H151.108V63.6405C151.093 63.1581 150.997 62.7053 150.819 62.2822C150.648 61.8591 150.384 61.5177 150.028 61.2579C149.672 60.9981 149.197 60.8682 148.603 60.8682C148.158 60.8682 147.76 60.9647 147.412 61.1577C147.07 61.3433 146.784 61.6142 146.554 61.9705C146.324 62.3267 146.146 62.7572 146.02 63.262C145.901 63.7593 145.842 64.3197 145.842 64.9432V65.3885C145.842 65.9155 145.912 66.4054 146.053 66.8582C146.202 67.3036 146.417 67.6932 146.699 68.0273C146.981 68.3613 147.322 68.6248 147.723 68.8178C148.124 69.0033 148.581 69.0961 149.093 69.0961C149.739 69.0961 150.314 68.9662 150.819 68.7064C151.323 68.4466 151.761 68.0792 152.132 67.6042L153.546 68.9736C153.287 69.3522 152.949 69.7159 152.533 70.0648C152.117 70.4062 151.609 70.6845 151.008 70.8998C150.414 71.115 149.724 71.2227 148.937 71.2227ZM163.199 68.506V53.8984H165.894V71H163.455L163.199 68.506ZM155.361 65.1102V64.8764C155.361 63.9634 155.469 63.1321 155.684 62.3824C155.899 61.6253 156.211 60.9758 156.619 60.434C157.027 59.8847 157.525 59.4653 158.111 59.1759C158.698 58.879 159.358 58.7305 160.093 58.7305C160.82 58.7305 161.459 58.8715 162.008 59.1536C162.557 59.4357 163.025 59.8402 163.411 60.3672C163.797 60.8868 164.105 61.5103 164.335 62.2377C164.565 62.9577 164.728 63.7593 164.825 64.6426V65.3885C164.728 66.2496 164.565 67.0364 164.335 67.7489C164.105 68.4615 163.797 69.0776 163.411 69.5971C163.025 70.1167 162.554 70.5175 161.997 70.7996C161.448 71.0816 160.806 71.2227 160.071 71.2227C159.343 71.2227 158.686 71.0705 158.1 70.7662C157.521 70.4619 157.027 70.0351 156.619 69.4858C156.211 68.9365 155.899 68.2908 155.684 67.5485C155.469 66.7988 155.361 65.9861 155.361 65.1102ZM158.044 64.8764V65.1102C158.044 65.6595 158.093 66.1716 158.189 66.6467C158.293 67.1217 158.453 67.5411 158.668 67.9048C158.883 68.2611 159.161 68.5431 159.503 68.751C159.852 68.9514 160.267 69.0516 160.75 69.0516C161.359 69.0516 161.86 68.918 162.253 68.6508C162.646 68.3835 162.954 68.0236 163.177 67.5708C163.407 67.1106 163.563 66.5984 163.645 66.0343V64.0191C163.6 63.5812 163.507 63.1729 163.366 62.7944C163.233 62.4158 163.051 62.0855 162.821 61.8034C162.591 61.514 162.305 61.2913 161.963 61.1354C161.629 60.9721 161.232 60.8905 160.772 60.8905C160.282 60.8905 159.867 60.9944 159.525 61.2022C159.184 61.4101 158.902 61.6958 158.679 62.0595C158.464 62.4232 158.304 62.8463 158.2 63.3288C158.096 63.8113 158.044 64.3271 158.044 64.8764ZM171.572 58.9532V71H168.878V58.9532H171.572ZM168.699 55.7912C168.699 55.3829 168.833 55.0452 169.1 54.778C169.375 54.5034 169.753 54.366 170.236 54.366C170.711 54.366 171.086 54.5034 171.36 54.778C171.635 55.0452 171.772 55.3829 171.772 55.7912C171.772 56.192 171.635 56.526 171.36 56.7932C171.086 57.0604 170.711 57.194 170.236 57.194C169.753 57.194 169.375 57.0604 169.1 56.7932C168.833 56.526 168.699 56.192 168.699 55.7912ZM180.034 58.9532V60.9127H173.242V58.9532H180.034ZM175.202 56.0027H177.885V67.671C177.885 68.0421 177.937 68.3279 178.041 68.5283C178.152 68.7213 178.304 68.8512 178.497 68.918C178.69 68.9848 178.917 69.0182 179.176 69.0182C179.362 69.0182 179.54 69.007 179.711 68.9848C179.882 68.9625 180.019 68.9402 180.123 68.918L180.134 70.9666C179.911 71.0334 179.651 71.0928 179.355 71.1447C179.065 71.1967 178.731 71.2227 178.352 71.2227C177.736 71.2227 177.191 71.115 176.716 70.8998C176.241 70.6771 175.87 70.3171 175.602 69.8198C175.335 69.3225 175.202 68.6619 175.202 67.838V56.0027ZM192.704 69.085C193.142 69.085 193.535 68.9996 193.884 68.8289C194.24 68.6508 194.526 68.4058 194.741 68.0941C194.964 67.7823 195.087 67.4223 195.109 67.0141H197.636C197.621 67.7935 197.391 68.5023 196.946 69.1406C196.501 69.779 195.911 70.2874 195.176 70.666C194.441 71.0371 193.628 71.2227 192.737 71.2227C191.817 71.2227 191.015 71.0668 190.332 70.7551C189.65 70.4359 189.082 69.998 188.629 69.4413C188.176 68.8846 187.835 68.2425 187.605 67.5151C187.382 66.7877 187.271 66.0083 187.271 65.177V64.7873C187.271 63.956 187.382 63.1766 187.605 62.4492C187.835 61.7144 188.176 61.0686 188.629 60.5119C189.082 59.9552 189.65 59.521 190.332 59.2093C191.015 58.8901 191.813 58.7305 192.726 58.7305C193.691 58.7305 194.537 58.9235 195.265 59.3095C195.992 59.688 196.564 60.2187 196.979 60.9016C197.402 61.5771 197.621 62.3639 197.636 63.262H195.109C195.087 62.8166 194.975 62.4158 194.775 62.0595C194.582 61.6958 194.307 61.4063 193.951 61.1911C193.602 60.9758 193.183 60.8682 192.693 60.8682C192.151 60.8682 191.702 60.9795 191.346 61.2022C190.989 61.4175 190.711 61.7144 190.511 62.0929C190.31 62.4641 190.165 62.8834 190.076 63.3511C189.995 63.8113 189.954 64.29 189.954 64.7873V65.177C189.954 65.6743 189.995 66.1568 190.076 66.6244C190.158 67.092 190.299 67.5114 190.5 67.8825C190.707 68.2462 190.989 68.5394 191.346 68.7621C191.702 68.9774 192.155 69.085 192.704 69.085ZM206.488 68.584V62.8389C206.488 62.4084 206.41 62.0373 206.254 61.7255C206.098 61.4138 205.86 61.1725 205.541 61.0018C205.23 60.8311 204.836 60.7457 204.361 60.7457C203.923 60.7457 203.545 60.82 203.225 60.9684C202.906 61.1169 202.658 61.3173 202.48 61.5696C202.301 61.822 202.212 62.1078 202.212 62.4269H199.54C199.54 61.9519 199.655 61.4917 199.885 61.0463C200.115 60.601 200.449 60.2039 200.887 59.855C201.325 59.5062 201.849 59.2315 202.457 59.0311C203.066 58.8307 203.749 58.7305 204.506 58.7305C205.411 58.7305 206.213 58.8827 206.911 59.187C207.616 59.4913 208.169 59.9515 208.57 60.5676C208.978 61.1762 209.182 61.9408 209.182 62.8612V68.2165C209.182 68.7658 209.219 69.2594 209.293 69.6973C209.375 70.1278 209.49 70.5027 209.639 70.8219V71H206.889C206.762 70.7105 206.662 70.3431 206.588 69.8977C206.521 69.445 206.488 69.007 206.488 68.584ZM206.877 63.6739L206.9 65.3329H204.973C204.476 65.3329 204.038 65.3811 203.66 65.4776C203.281 65.5667 202.966 65.7003 202.713 65.8784C202.461 66.0566 202.272 66.2718 202.146 66.5242C202.019 66.7766 201.956 67.0623 201.956 67.3815C201.956 67.7007 202.03 67.9939 202.179 68.2611C202.327 68.5209 202.543 68.725 202.825 68.8734C203.114 69.0219 203.463 69.0961 203.871 69.0961C204.421 69.0961 204.899 68.9848 205.308 68.7621C205.723 68.532 206.05 68.2537 206.287 67.9271C206.525 67.593 206.651 67.2776 206.666 66.9807L207.534 68.172C207.445 68.4763 207.293 68.8029 207.078 69.1518C206.863 69.5006 206.58 69.8347 206.232 70.1538C205.89 70.4656 205.478 70.7217 204.996 70.9221C204.521 71.1225 203.971 71.2227 203.348 71.2227C202.561 71.2227 201.86 71.0668 201.244 70.7551C200.628 70.4359 200.145 70.0091 199.796 69.4747C199.447 68.9328 199.273 68.3205 199.273 67.6376C199.273 66.9992 199.392 66.4351 199.629 65.9452C199.874 65.4479 200.23 65.0323 200.698 64.6982C201.173 64.3642 201.752 64.1119 202.435 63.9411C203.118 63.763 203.897 63.6739 204.773 63.6739H206.877ZM214.682 61.2468V71H211.999V58.9532H214.56L214.682 61.2468ZM218.368 58.8752L218.345 61.3692C218.182 61.3395 218.004 61.3173 217.811 61.3024C217.625 61.2876 217.44 61.2802 217.254 61.2802C216.794 61.2802 216.389 61.347 216.041 61.4806C215.692 61.6068 215.398 61.7923 215.161 62.0373C214.931 62.2748 214.753 62.5643 214.627 62.9057C214.5 63.2471 214.426 63.6294 214.404 64.0525L213.792 64.097C213.792 63.3399 213.866 62.6385 214.014 61.9927C214.163 61.347 214.385 60.7791 214.682 60.2892C214.987 59.7994 215.365 59.4171 215.818 59.1425C216.278 58.8678 216.809 58.7305 217.41 58.7305C217.573 58.7305 217.748 58.7454 217.933 58.775C218.126 58.8047 218.271 58.8381 218.368 58.8752ZM227.174 68.506V53.8984H229.869V71H227.43L227.174 68.506ZM219.336 65.1102V64.8764C219.336 63.9634 219.444 63.1321 219.659 62.3824C219.874 61.6253 220.186 60.9758 220.594 60.434C221.003 59.8847 221.5 59.4653 222.086 59.1759C222.673 58.879 223.333 58.7305 224.068 58.7305C224.795 58.7305 225.434 58.8715 225.983 59.1536C226.532 59.4357 227 59.8402 227.386 60.3672C227.772 60.8868 228.08 61.5103 228.31 62.2377C228.54 62.9577 228.703 63.7593 228.8 64.6426V65.3885C228.703 66.2496 228.54 67.0364 228.31 67.7489C228.08 68.4615 227.772 69.0776 227.386 69.5971C227 70.1167 226.529 70.5175 225.972 70.7996C225.423 71.0816 224.781 71.2227 224.046 71.2227C223.318 71.2227 222.661 71.0705 222.075 70.7662C221.496 70.4619 221.003 70.0351 220.594 69.4858C220.186 68.9365 219.874 68.2908 219.659 67.5485C219.444 66.7988 219.336 65.9861 219.336 65.1102ZM222.019 64.8764V65.1102C222.019 65.6595 222.068 66.1716 222.164 66.6467C222.268 67.1217 222.428 67.5411 222.643 67.9048C222.858 68.2611 223.137 68.5431 223.478 68.751C223.827 68.9514 224.242 69.0516 224.725 69.0516C225.334 69.0516 225.835 68.918 226.228 68.6508C226.621 68.3835 226.929 68.0236 227.152 67.5708C227.382 67.1106 227.538 66.5984 227.62 66.0343V64.0191C227.575 63.5812 227.482 63.1729 227.341 62.7944C227.208 62.4158 227.026 62.0855 226.796 61.8034C226.566 61.514 226.28 61.2913 225.939 61.1354C225.605 60.9721 225.207 60.8905 224.747 60.8905C224.257 60.8905 223.842 60.9944 223.5 61.2022C223.159 61.4101 222.877 61.6958 222.654 62.0595C222.439 62.4232 222.279 62.8463 222.175 63.3288C222.071 63.8113 222.019 64.3271 222.019 64.8764ZM239.433 67.7378C239.433 67.4706 239.366 67.2293 239.232 67.0141C239.099 66.7914 238.843 66.591 238.464 66.4129C238.093 66.2347 237.544 66.0714 236.816 65.923C236.178 65.7819 235.592 65.6149 235.057 65.4219C234.53 65.2215 234.077 64.9803 233.699 64.6982C233.32 64.4162 233.027 64.0822 232.819 63.6962C232.611 63.3102 232.507 62.8649 232.507 62.3601C232.507 61.8703 232.615 61.4063 232.83 60.9684C233.046 60.5305 233.354 60.1445 233.754 59.8105C234.155 59.4765 234.641 59.213 235.213 59.02C235.792 58.827 236.438 58.7305 237.15 58.7305C238.16 58.7305 239.024 58.9012 239.744 59.2427C240.472 59.5767 241.029 60.0332 241.415 60.6121C241.801 61.1837 241.994 61.8294 241.994 62.5494H239.31C239.31 62.2302 239.229 61.9333 239.065 61.6587C238.909 61.3767 238.672 61.1503 238.353 60.9795C238.034 60.8014 237.633 60.7123 237.15 60.7123C236.69 60.7123 236.308 60.7866 236.004 60.935C235.707 61.076 235.484 61.2616 235.335 61.4917C235.194 61.7218 235.124 61.9742 235.124 62.2488C235.124 62.4492 235.161 62.6311 235.235 62.7944C235.317 62.9502 235.451 63.095 235.636 63.2286C235.822 63.3548 236.074 63.4735 236.393 63.5849C236.72 63.6962 237.128 63.8038 237.618 63.9077C238.538 64.1007 239.329 64.3494 239.989 64.6537C240.657 64.9506 241.17 65.3366 241.526 65.8116C241.882 66.2793 242.06 66.8731 242.06 67.593C242.06 68.1275 241.945 68.6174 241.715 69.0627C241.492 69.5006 241.166 69.8829 240.735 70.2095C240.305 70.5287 239.789 70.7773 239.188 70.9555C238.594 71.1336 237.926 71.2227 237.184 71.2227C236.093 71.2227 235.168 71.0297 234.411 70.6437C233.654 70.2503 233.079 69.7493 232.686 69.1406C232.3 68.5246 232.107 67.8862 232.107 67.2256H234.701C234.731 67.7229 234.868 68.12 235.113 68.4169C235.365 68.7064 235.677 68.918 236.048 69.0516C236.427 69.1778 236.816 69.2409 237.217 69.2409C237.7 69.2409 238.104 69.1778 238.431 69.0516C238.757 68.918 239.006 68.7398 239.177 68.5172C239.347 68.2871 239.433 68.0273 239.433 67.7378Z" fill="white"/>
</svg>
