<svg width="185" height="91" viewBox="0 0 185 91" fill="none" xmlns="http://www.w3.org/2000/svg">
<rect width="185" height="91" rx="18.2417" fill="black"/>
<rect x="0.380035" y="0.380035" width="184.24" height="90.2399" rx="17.8616" stroke="white" stroke-opacity="0.5" stroke-width="0.76007"/>
<path d="M37.641 23.7891V40H34.3008L27.7876 29.1334V40H24.4474V23.7891H27.7876L34.312 34.6669V23.7891H37.641ZM39.8344 34.0991V33.8653C39.8344 32.982 39.9605 32.1692 40.2129 31.4269C40.4653 30.6773 40.8327 30.0278 41.3152 29.4785C41.7976 28.9293 42.3914 28.5025 43.0966 28.1981C43.8017 27.8864 44.6108 27.7305 45.5238 27.7305C46.4367 27.7305 47.2495 27.8864 47.9621 28.1981C48.6746 28.5025 49.2721 28.9293 49.7546 29.4785C50.2445 30.0278 50.6156 30.6773 50.868 31.4269C51.1204 32.1692 51.2465 32.982 51.2465 33.8653V34.0991C51.2465 34.9749 51.1204 35.7877 50.868 36.5374C50.6156 37.2796 50.2445 37.9291 49.7546 38.4858C49.2721 39.0351 48.6783 39.4619 47.9732 39.7662C47.2681 40.0705 46.459 40.2227 45.546 40.2227C44.633 40.2227 43.8203 40.0705 43.1077 39.7662C42.4026 39.4619 41.8051 39.0351 41.3152 38.4858C40.8327 37.9291 40.4653 37.2796 40.2129 36.5374C39.9605 35.7877 39.8344 34.9749 39.8344 34.0991ZM43.0409 33.8653V34.0991C43.0409 34.6038 43.0854 35.0751 43.1745 35.5131C43.2636 35.951 43.4046 36.337 43.5976 36.671C43.798 36.9976 44.0578 37.2537 44.377 37.4392C44.6961 37.6248 45.0858 37.7176 45.546 37.7176C45.9914 37.7176 46.3736 37.6248 46.6928 37.4392C47.012 37.2537 47.2681 36.9976 47.461 36.671C47.654 36.337 47.7951 35.951 47.8841 35.5131C47.9806 35.0751 48.0289 34.6038 48.0289 34.0991V33.8653C48.0289 33.3754 47.9806 32.9152 47.8841 32.4847C47.7951 32.0467 47.6503 31.6608 47.4499 31.3267C47.2569 30.9853 47.0008 30.7181 46.6817 30.5251C46.3625 30.3321 45.9765 30.2356 45.5238 30.2356C45.071 30.2356 44.685 30.3321 44.3658 30.5251C44.0541 30.7181 43.798 30.9853 43.5976 31.3267C43.4046 31.6608 43.2636 32.0467 43.1745 32.4847C43.0854 32.9152 43.0409 33.3754 43.0409 33.8653ZM62.102 30.4472V40H58.8844V27.9532H61.9016L62.102 30.4472ZM61.6567 33.5535H60.766C60.766 32.7148 60.8662 31.9428 61.0666 31.2377C61.2744 30.5251 61.575 29.909 61.9684 29.3895C62.3693 28.8625 62.8629 28.4542 63.4492 28.1647C64.0356 27.8752 64.7148 27.7305 65.4867 27.7305C66.0212 27.7305 66.511 27.8122 66.9564 27.9755C67.4017 28.1313 67.784 28.38 68.1032 28.7214C68.4298 29.0554 68.6821 29.4934 68.8603 30.0352C69.0384 30.5696 69.1275 31.2117 69.1275 31.9614V40H65.9209V32.3177C65.9209 31.7684 65.8467 31.3453 65.6983 31.0484C65.5498 30.7515 65.3383 30.5437 65.0636 30.4249C64.7964 30.3061 64.4735 30.2468 64.095 30.2468C63.6793 30.2468 63.3156 30.3321 63.0039 30.5028C62.6996 30.6736 62.4472 30.9111 62.2468 31.2154C62.0464 31.5123 61.8979 31.8612 61.8014 32.262C61.7049 32.6628 61.6567 33.0933 61.6567 33.5535ZM68.8269 33.1861L67.6801 33.3308C67.6801 32.544 67.7766 31.8129 67.9696 31.1375C68.17 30.462 68.4632 29.8682 68.8491 29.3561C69.2425 28.8439 69.7287 28.4468 70.3077 28.1647C70.8866 27.8752 71.5547 27.7305 72.3118 27.7305C72.8907 27.7305 73.4177 27.8159 73.8928 27.9866C74.3678 28.1499 74.7723 28.4134 75.1064 28.7771C75.4478 29.1334 75.7076 29.601 75.8857 30.18C76.0713 30.7589 76.1641 31.4678 76.1641 32.3065V40H72.9464V32.3065C72.9464 31.7498 72.8722 31.3267 72.7237 31.0373C72.5827 30.7404 72.3749 30.5362 72.1002 30.4249C71.833 30.3061 71.5138 30.2468 71.1427 30.2468C70.7567 30.2468 70.419 30.3247 70.1295 30.4806C69.8401 30.629 69.5988 30.8369 69.4058 31.1041C69.2129 31.3713 69.0681 31.683 68.9716 32.0393C68.8751 32.3882 68.8269 32.7704 68.8269 33.1861ZM78.1348 34.0991V33.8653C78.1348 32.982 78.2609 32.1692 78.5133 31.4269C78.7657 30.6773 79.1331 30.0278 79.6156 29.4785C80.098 28.9293 80.6918 28.5025 81.397 28.1981C82.1021 27.8864 82.9112 27.7305 83.8242 27.7305C84.7371 27.7305 85.5499 27.8864 86.2625 28.1981C86.975 28.5025 87.5725 28.9293 88.055 29.4785C88.5449 30.0278 88.916 30.6773 89.1684 31.4269C89.4208 32.1692 89.547 32.982 89.547 33.8653V34.0991C89.547 34.9749 89.4208 35.7877 89.1684 36.5374C88.916 37.2796 88.5449 37.9291 88.055 38.4858C87.5725 39.0351 86.9787 39.4619 86.2736 39.7662C85.5685 40.0705 84.7594 40.2227 83.8464 40.2227C82.9335 40.2227 82.1207 40.0705 81.4081 39.7662C80.703 39.4619 80.1055 39.0351 79.6156 38.4858C79.1331 37.9291 78.7657 37.2796 78.5133 36.5374C78.2609 35.7877 78.1348 34.9749 78.1348 34.0991ZM81.3413 33.8653V34.0991C81.3413 34.6038 81.3858 35.0751 81.4749 35.5131C81.564 35.951 81.705 36.337 81.898 36.671C82.0984 36.9976 82.3582 37.2537 82.6774 37.4392C82.9965 37.6248 83.3862 37.7176 83.8464 37.7176C84.2918 37.7176 84.674 37.6248 84.9932 37.4392C85.3124 37.2537 85.5685 36.9976 85.7614 36.671C85.9544 36.337 86.0955 35.951 86.1845 35.5131C86.281 35.0751 86.3293 34.6038 86.3293 34.0991V33.8653C86.3293 33.3754 86.281 32.9152 86.1845 32.4847C86.0955 32.0467 85.9507 31.6608 85.7503 31.3267C85.5573 30.9853 85.3012 30.7181 84.9821 30.5251C84.6629 30.3321 84.2769 30.2356 83.8242 30.2356C83.3714 30.2356 82.9854 30.3321 82.6662 30.5251C82.3545 30.7181 82.0984 30.9853 81.898 31.3267C81.705 31.6608 81.564 32.0467 81.4749 32.4847C81.3858 32.9152 81.3413 33.3754 81.3413 33.8653ZM94.7242 30.5808V40H91.5176V27.9532H94.5349L94.7242 30.5808ZM98.3538 27.8752L98.2982 30.848C98.1423 30.8257 97.953 30.8072 97.7303 30.7923C97.5151 30.77 97.3184 30.7589 97.1402 30.7589C96.6875 30.7589 96.2941 30.8183 95.96 30.9371C95.6335 31.0484 95.3588 31.2154 95.1361 31.4381C94.9209 31.6608 94.7576 31.9317 94.6463 32.2508C94.5423 32.57 94.483 32.9337 94.4681 33.342L93.8223 33.1416C93.8223 32.3622 93.9003 31.6459 94.0562 30.9927C94.212 30.3321 94.4384 29.7569 94.7353 29.267C95.0396 28.7771 95.4108 28.3985 95.8487 28.1313C96.2866 27.8641 96.7877 27.7305 97.3518 27.7305C97.5299 27.7305 97.7118 27.7454 97.8973 27.775C98.0829 27.7973 98.2351 27.8307 98.3538 27.8752ZM105.19 40.2227C104.255 40.2227 103.416 40.0742 102.674 39.7773C101.931 39.473 101.301 39.0536 100.781 38.5192C100.269 37.9848 99.8754 37.365 99.6008 36.6598C99.3262 35.9473 99.1889 35.1902 99.1889 34.3885V33.9432C99.1889 33.0302 99.3188 32.1952 99.5785 31.4381C99.8383 30.681 100.209 30.0241 100.692 29.4674C101.182 28.9107 101.776 28.4839 102.473 28.187C103.171 27.8827 103.958 27.7305 104.834 27.7305C105.687 27.7305 106.444 27.8715 107.105 28.1536C107.766 28.4357 108.319 28.8365 108.764 29.3561C109.217 29.8756 109.558 30.4991 109.788 31.2265C110.018 31.9465 110.133 32.7482 110.133 33.6314V34.9675H100.558V32.8298H106.983V32.5849C106.983 32.1395 106.901 31.7424 106.738 31.3935C106.582 31.0373 106.344 30.7552 106.025 30.5474C105.706 30.3395 105.298 30.2356 104.8 30.2356C104.377 30.2356 104.014 30.3284 103.709 30.514C103.405 30.6995 103.156 30.9593 102.963 31.2933C102.778 31.6274 102.637 32.0207 102.54 32.4735C102.451 32.9189 102.407 33.4088 102.407 33.9432V34.3885C102.407 34.871 102.473 35.3164 102.607 35.7246C102.748 36.1328 102.945 36.4854 103.197 36.7823C103.457 37.0792 103.769 37.3093 104.132 37.4726C104.503 37.6359 104.923 37.7176 105.39 37.7176C105.969 37.7176 106.507 37.6062 107.005 37.3835C107.51 37.1534 107.944 36.8083 108.307 36.3481L109.866 38.0404C109.614 38.4041 109.269 38.753 108.831 39.087C108.4 39.421 107.881 39.6957 107.272 39.9109C106.663 40.1188 105.969 40.2227 105.19 40.2227ZM124.151 36.671C124.151 36.4409 124.084 36.2331 123.951 36.0475C123.817 35.8619 123.568 35.6912 123.205 35.5353C122.848 35.372 122.332 35.2236 121.657 35.09C121.048 34.9564 120.48 34.7894 119.953 34.589C119.434 34.3811 118.981 34.1325 118.595 33.843C118.217 33.5535 117.92 33.2121 117.704 32.8187C117.489 32.4179 117.382 31.9614 117.382 31.4492C117.382 30.9445 117.489 30.4694 117.704 30.0241C117.927 29.5787 118.243 29.1853 118.651 28.8439C119.066 28.495 119.571 28.2241 120.165 28.0311C120.766 27.8307 121.442 27.7305 122.191 27.7305C123.238 27.7305 124.136 27.8975 124.886 28.2315C125.643 28.5655 126.222 29.0257 126.623 29.6121C127.031 30.1911 127.235 30.8517 127.235 31.594H124.028C124.028 31.2822 123.962 31.0039 123.828 30.7589C123.702 30.5065 123.501 30.3098 123.227 30.1688C122.96 30.0204 122.611 29.9461 122.18 29.9461C121.824 29.9461 121.516 30.0092 121.256 30.1354C120.996 30.2542 120.796 30.4175 120.655 30.6253C120.521 30.8257 120.454 31.0484 120.454 31.2933C120.454 31.4789 120.492 31.6459 120.566 31.7944C120.647 31.9354 120.777 32.0653 120.956 32.184C121.134 32.3028 121.364 32.4141 121.646 32.5181C121.935 32.6146 122.292 32.7036 122.715 32.7853C123.583 32.9634 124.359 33.1972 125.042 33.4867C125.725 33.7688 126.266 34.1547 126.667 34.6446C127.068 35.1271 127.268 35.7617 127.268 36.5485C127.268 37.0829 127.15 37.5728 126.912 38.0182C126.675 38.4635 126.333 38.8532 125.888 39.1872C125.442 39.5138 124.908 39.7699 124.285 39.9555C123.668 40.1336 122.974 40.2227 122.202 40.2227C121.082 40.2227 120.132 40.0223 119.352 39.6214C118.58 39.2206 117.994 38.7122 117.593 38.0961C117.2 37.4726 117.003 36.8343 117.003 36.1811H120.043C120.057 36.619 120.169 36.9716 120.377 37.2388C120.592 37.506 120.863 37.699 121.189 37.8178C121.523 37.9365 121.883 37.9959 122.269 37.9959C122.685 37.9959 123.03 37.9402 123.305 37.8289C123.579 37.7101 123.787 37.5543 123.928 37.3613C124.077 37.1609 124.151 36.9308 124.151 36.671ZM132.557 30.269V44.6317H129.35V27.9532H132.323L132.557 30.269ZM140.184 33.843V34.0768C140.184 34.9527 140.08 35.7654 139.872 36.5151C139.671 37.2648 139.375 37.918 138.981 38.4747C138.588 39.0239 138.098 39.4544 137.512 39.7662C136.933 40.0705 136.265 40.2227 135.507 40.2227C134.773 40.2227 134.134 40.0742 133.592 39.7773C133.051 39.4804 132.594 39.0648 132.223 38.5303C131.859 37.9885 131.566 37.3613 131.343 36.6487C131.121 35.9361 130.95 35.1716 130.831 34.3551V33.7428C130.95 32.8669 131.121 32.0653 131.343 31.3379C131.566 30.603 131.859 29.9684 132.223 29.434C132.594 28.8921 133.047 28.4728 133.581 28.1759C134.123 27.879 134.758 27.7305 135.485 27.7305C136.25 27.7305 136.921 27.8752 137.5 28.1647C138.087 28.4542 138.577 28.8699 138.97 29.4117C139.371 29.9536 139.671 30.5993 139.872 31.349C140.08 32.0987 140.184 32.93 140.184 33.843ZM136.966 34.0768V33.843C136.966 33.3308 136.921 32.8595 136.832 32.429C136.751 31.9911 136.617 31.6088 136.432 31.2822C136.253 30.9556 136.016 30.7032 135.719 30.5251C135.429 30.3395 135.077 30.2468 134.661 30.2468C134.223 30.2468 133.848 30.3173 133.537 30.4583C133.232 30.5993 132.984 30.8034 132.791 31.0707C132.598 31.3379 132.453 31.657 132.357 32.0282C132.26 32.3993 132.201 32.8187 132.178 33.2863V34.8339C132.216 35.3832 132.319 35.8768 132.49 36.3147C132.661 36.7452 132.924 37.0866 133.281 37.339C133.637 37.5914 134.105 37.7176 134.684 37.7176C135.107 37.7176 135.463 37.6248 135.752 37.4392C136.042 37.2462 136.276 36.9827 136.454 36.6487C136.639 36.3147 136.769 35.9287 136.843 35.4908C136.925 35.0529 136.966 34.5815 136.966 34.0768ZM145.561 22.8984V40H142.344V22.8984H145.561ZM151.596 27.9532V40H148.378V27.9532H151.596ZM148.178 24.8134C148.178 24.3458 148.341 23.9599 148.668 23.6555C148.994 23.3512 149.432 23.199 149.981 23.199C150.523 23.199 150.957 23.3512 151.284 23.6555C151.618 23.9599 151.785 24.3458 151.785 24.8134C151.785 25.2811 151.618 25.667 151.284 25.9714C150.957 26.2757 150.523 26.4279 149.981 26.4279C149.432 26.4279 148.994 26.2757 148.668 25.9714C148.341 25.667 148.178 25.2811 148.178 24.8134ZM160.147 27.9532V30.2245H153.132V27.9532H160.147ZM154.869 24.9805H158.076V36.3704C158.076 36.7192 158.12 36.9864 158.209 37.172C158.306 37.3576 158.447 37.4875 158.632 37.5617C158.818 37.6285 159.052 37.6619 159.334 37.6619C159.534 37.6619 159.712 37.6545 159.868 37.6396C160.032 37.6174 160.169 37.5951 160.28 37.5728L160.291 39.9332C160.017 40.0223 159.72 40.0928 159.401 40.1447C159.081 40.1967 158.729 40.2227 158.343 40.2227C157.638 40.2227 157.022 40.1076 156.495 39.8775C155.975 39.64 155.574 39.2615 155.292 38.7419C155.01 38.2223 154.869 37.5394 154.869 36.6932V24.9805ZM27.821 65.6417L31.0164 54.9532H34.4567L29.6135 68.8148C29.5096 69.1191 29.3686 69.4457 29.1904 69.7946C29.0197 70.1435 28.7859 70.4738 28.489 70.7855C28.1995 71.1047 27.8321 71.3645 27.3867 71.5649C26.9488 71.7653 26.4107 71.8655 25.7723 71.8655C25.468 71.8655 25.2193 71.8469 25.0264 71.8098C24.8334 71.7727 24.6033 71.7207 24.3361 71.6539V69.3047C24.4177 69.3047 24.5031 69.3047 24.5921 69.3047C24.6812 69.3121 24.7666 69.3158 24.8482 69.3158C25.2713 69.3158 25.6165 69.2676 25.8837 69.1711C26.1509 69.0746 26.3661 68.9262 26.5294 68.7257C26.6927 68.5328 26.8226 68.2804 26.9191 67.9686L27.821 65.6417ZM26.4849 54.9532L29.1013 63.6821L29.5578 67.0779L27.3756 67.3117L23.0445 54.9532H26.4849ZM35.0468 61.0991V60.8653C35.0468 59.982 35.173 59.1692 35.4254 58.4269C35.6777 57.6773 36.0451 57.0278 36.5276 56.4785C37.0101 55.9293 37.6039 55.5025 38.309 55.1981C39.0142 54.8864 39.8232 54.7305 40.7362 54.7305C41.6492 54.7305 42.4619 54.8864 43.1745 55.1981C43.8871 55.5025 44.4846 55.9293 44.9671 56.4785C45.457 57.0278 45.8281 57.6773 46.0804 58.4269C46.3328 59.1692 46.459 59.982 46.459 60.8653V61.0991C46.459 61.9749 46.3328 62.7877 46.0804 63.5374C45.8281 64.2796 45.457 64.9291 44.9671 65.4858C44.4846 66.0351 43.8908 66.4619 43.1856 66.7662C42.4805 67.0705 41.6714 67.2227 40.7585 67.2227C39.8455 67.2227 39.0327 67.0705 38.3202 66.7662C37.615 66.4619 37.0175 66.0351 36.5276 65.4858C36.0451 64.9291 35.6777 64.2796 35.4254 63.5374C35.173 62.7877 35.0468 61.9749 35.0468 61.0991ZM38.2534 60.8653V61.0991C38.2534 61.6038 38.2979 62.0751 38.387 62.5131C38.476 62.951 38.6171 63.337 38.8101 63.671C39.0105 63.9976 39.2702 64.2537 39.5894 64.4392C39.9086 64.6248 40.2983 64.7176 40.7585 64.7176C41.2038 64.7176 41.5861 64.6248 41.9053 64.4392C42.2244 64.2537 42.4805 63.9976 42.6735 63.671C42.8665 63.337 43.0075 62.951 43.0966 62.5131C43.1931 62.0751 43.2413 61.6038 43.2413 61.0991V60.8653C43.2413 60.3754 43.1931 59.9152 43.0966 59.4847C43.0075 59.0467 42.8628 58.6608 42.6624 58.3267C42.4694 57.9853 42.2133 57.7181 41.8941 57.5251C41.575 57.3321 41.189 57.2356 40.7362 57.2356C40.2834 57.2356 39.8975 57.3321 39.5783 57.5251C39.2665 57.7181 39.0105 57.9853 38.8101 58.3267C38.6171 58.6608 38.476 59.0467 38.387 59.4847C38.2979 59.9152 38.2534 60.3754 38.2534 60.8653ZM55.5553 64.1163V54.9532H58.7619V67H55.7446L55.5553 64.1163ZM55.9116 61.6446L56.858 61.6224C56.858 62.424 56.7652 63.17 56.5797 63.8603C56.3941 64.5431 56.1157 65.1369 55.7446 65.6417C55.3735 66.139 54.9059 66.5287 54.3418 66.8107C53.7776 67.0854 53.1133 67.2227 52.3488 67.2227C51.7624 67.2227 51.2206 67.141 50.7233 66.9777C50.2334 66.807 49.8103 66.5435 49.454 66.1872C49.1051 65.8235 48.8305 65.3596 48.6301 64.7955C48.4371 64.224 48.3406 63.5374 48.3406 62.7357V54.9532H51.5472V62.758C51.5472 63.1143 51.588 63.4149 51.6696 63.6598C51.7587 63.9048 51.8812 64.1052 52.0371 64.2611C52.1929 64.4169 52.3748 64.5283 52.5826 64.5951C52.7979 64.6619 53.0354 64.6953 53.2952 64.6953C53.9558 64.6953 54.4754 64.5617 54.8539 64.2945C55.2399 64.0273 55.5108 63.6636 55.6667 63.2034C55.83 62.7357 55.9116 62.2162 55.9116 61.6446ZM64.4179 57.5808V67H61.2113V54.9532H64.2286L64.4179 57.5808ZM68.0475 54.8752L67.9918 57.848C67.836 57.8257 67.6467 57.8072 67.424 57.7923C67.2088 57.77 67.0121 57.7589 66.8339 57.7589C66.3811 57.7589 65.9878 57.8183 65.6537 57.9371C65.3271 58.0484 65.0525 58.2154 64.8298 58.4381C64.6146 58.6608 64.4513 58.9317 64.3399 59.2508C64.236 59.57 64.1766 59.9337 64.1618 60.342L63.516 60.1416C63.516 59.3622 63.594 58.6459 63.7498 57.9927C63.9057 57.3321 64.1321 56.7569 64.429 56.267C64.7333 55.7771 65.1045 55.3985 65.5424 55.1313C65.9803 54.8641 66.4814 54.7305 67.0455 54.7305C67.2236 54.7305 67.4055 54.7454 67.591 54.775C67.7766 54.7973 67.9287 54.8307 68.0475 54.8752ZM81.1409 54.9532V57.2245H74.1266V54.9532H81.1409ZM75.8635 51.9805H79.07V63.3704C79.07 63.7192 79.1145 63.9864 79.2036 64.172C79.3001 64.3576 79.4411 64.4875 79.6267 64.5617C79.8123 64.6285 80.0461 64.6619 80.3281 64.6619C80.5285 64.6619 80.7067 64.6545 80.8626 64.6396C81.0259 64.6174 81.1632 64.5951 81.2745 64.5728L81.2856 66.9332C81.011 67.0223 80.7141 67.0928 80.3949 67.1447C80.0758 67.1967 79.7232 67.2227 79.3372 67.2227C78.6321 67.2227 78.016 67.1076 77.489 66.8775C76.9694 66.64 76.5686 66.2615 76.2866 65.7419C76.0045 65.2223 75.8635 64.5394 75.8635 63.6932V51.9805ZM89.469 64.2833V58.9168C89.469 58.5309 89.4059 58.2006 89.2797 57.9259C89.1536 57.6439 88.9569 57.4249 88.6896 57.269C88.4299 57.1132 88.0921 57.0352 87.6765 57.0352C87.3202 57.0352 87.0121 57.0983 86.7524 57.2245C86.4926 57.3433 86.2922 57.5177 86.1511 57.7478C86.0101 57.9705 85.9396 58.234 85.9396 58.5383H82.733C82.733 58.0261 82.8518 57.5399 83.0893 57.0797C83.3268 56.6196 83.672 56.215 84.1248 55.8662C84.5775 55.5099 85.1157 55.2315 85.7392 55.0311C86.3701 54.8307 87.0752 54.7305 87.8546 54.7305C88.7899 54.7305 89.6212 54.8864 90.3486 55.1981C91.076 55.5099 91.6475 55.9775 92.0632 56.601C92.4863 57.2245 92.6978 58.0039 92.6978 58.9391V64.0941C92.6978 64.7547 92.7387 65.2965 92.8203 65.7196C92.9019 66.1353 93.0207 66.499 93.1766 66.8107V67H89.9366C89.7808 66.6734 89.662 66.2652 89.5804 65.7753C89.5061 65.278 89.469 64.7807 89.469 64.2833ZM89.8921 59.6628L89.9144 61.4776H88.1218C87.6987 61.4776 87.3313 61.5259 87.0196 61.6224C86.7078 61.7188 86.4517 61.8562 86.2513 62.0343C86.0509 62.205 85.9025 62.4054 85.806 62.6355C85.7169 62.8656 85.6724 63.118 85.6724 63.3926C85.6724 63.6673 85.7355 63.9159 85.8617 64.1386C85.9878 64.3539 86.1697 64.5246 86.4072 64.6508C86.6447 64.7695 86.9231 64.8289 87.2422 64.8289C87.7247 64.8289 88.1441 64.7324 88.5004 64.5394C88.8567 64.3464 89.1313 64.1089 89.3243 63.8269C89.5247 63.5448 89.6286 63.2776 89.636 63.0252L90.4822 64.3835C90.3634 64.6879 90.2001 65.0033 89.9923 65.3299C89.7919 65.6565 89.5358 65.9646 89.2241 66.254C88.9123 66.5361 88.5375 66.7699 88.0996 66.9555C87.6616 67.1336 87.142 67.2227 86.5408 67.2227C85.7763 67.2227 85.0823 67.0705 84.4588 66.7662C83.8427 66.4544 83.3528 66.0276 82.9891 65.4858C82.6328 64.9365 82.4547 64.313 82.4547 63.6153C82.4547 62.9844 82.5735 62.424 82.811 61.9341C83.0485 61.4442 83.3974 61.0323 83.8576 60.6982C84.3252 60.3568 84.9079 60.1007 85.6056 59.93C86.3033 59.7519 87.1124 59.6628 88.0328 59.6628H89.8921ZM95.1695 49.8984H98.3761V64.2388L98.0532 67H95.1695V49.8984ZM106.003 60.8541V61.0879C106.003 61.9861 105.906 62.81 105.713 63.5596C105.528 64.3093 105.238 64.9588 104.845 65.5081C104.451 66.0499 103.962 66.473 103.375 66.7773C102.796 67.0742 102.113 67.2227 101.327 67.2227C100.592 67.2227 99.9534 67.0742 99.4115 66.7773C98.8771 66.4804 98.428 66.061 98.0643 65.5192C97.7006 64.9774 97.4074 64.3427 97.1848 63.6153C96.9621 62.8879 96.7951 62.0937 96.6837 61.2327V60.7205C96.7951 59.8595 96.9621 59.0653 97.1848 58.3379C97.4074 57.6105 97.7006 56.9758 98.0643 56.434C98.428 55.8921 98.8771 55.4728 99.4115 55.1759C99.946 54.879 100.577 54.7305 101.304 54.7305C102.099 54.7305 102.789 54.8827 103.375 55.187C103.969 55.4839 104.459 55.907 104.845 56.4563C105.238 56.9981 105.528 57.6439 105.713 58.3935C105.906 59.1358 106.003 59.956 106.003 60.8541ZM102.796 61.0879V60.8541C102.796 60.3642 102.759 59.904 102.685 59.4735C102.618 59.0356 102.499 58.6533 102.329 58.3267C102.158 57.9927 101.924 57.7292 101.627 57.5362C101.338 57.3433 100.963 57.2468 100.503 57.2468C100.065 57.2468 99.6936 57.321 99.3893 57.4694C99.0849 57.6179 98.8326 57.8257 98.6322 58.0929C98.4392 58.3601 98.2944 58.6793 98.1979 59.0504C98.1015 59.4141 98.0421 59.815 98.0198 60.2529V61.7114C98.0421 62.2978 98.1386 62.8174 98.3093 63.2702C98.4874 63.7155 98.7546 64.0681 99.1109 64.3279C99.4746 64.5802 99.946 64.7064 100.525 64.7064C100.978 64.7064 101.353 64.6174 101.649 64.4392C101.946 64.2611 102.176 64.0087 102.34 63.6821C102.51 63.3555 102.629 62.9733 102.696 62.5353C102.763 62.09 102.796 61.6075 102.796 61.0879Z" fill="white"/>
</svg>
