<svg width="143" height="141" viewBox="0 0 143 141" fill="none" xmlns="http://www.w3.org/2000/svg">
<path d="M91.0167 3.97009C91.0025 3.69431 91.2146 3.45926 91.4904 3.44508L95.9844 3.21406C96.2602 3.19988 96.4953 3.41195 96.5094 3.68773C96.5236 3.96351 96.3115 4.19856 96.0358 4.21274L92.041 4.41809L92.2464 8.41282C92.2606 8.6886 92.0485 8.92365 91.7727 8.93783C91.4969 8.95201 91.2619 8.73993 91.2477 8.46416L91.0167 3.97009ZM114.385 103.636C119.652 94.2397 124.782 79.2725 123.136 61.7342C121.491 44.2097 113.078 24.0711 91.1811 4.31566L91.851 3.57319C113.918 23.4821 122.462 43.8461 124.131 61.6408C125.8 79.4219 120.601 94.5908 115.258 104.125L114.385 103.636Z" fill="white"/>
<path d="M5.634 136.216C4.638 136.216 3.672 136.084 2.736 135.82C1.812 135.544 1.068 135.19 0.504 134.758L1.494 132.562C2.034 132.958 2.676 133.276 3.42 133.516C4.164 133.756 4.908 133.876 5.652 133.876C6.48 133.876 7.092 133.756 7.488 133.516C7.884 133.264 8.082 132.934 8.082 132.526C8.082 132.226 7.962 131.98 7.722 131.788C7.494 131.584 7.194 131.422 6.822 131.302C6.462 131.182 5.97 131.05 5.346 130.906C4.386 130.678 3.6 130.45 2.988 130.222C2.376 129.994 1.848 129.628 1.404 129.124C0.972 128.62 0.756 127.948 0.756 127.108C0.756 126.376 0.954 125.716 1.35 125.128C1.746 124.528 2.34 124.054 3.132 123.706C3.936 123.358 4.914 123.184 6.066 123.184C6.87 123.184 7.656 123.28 8.424 123.472C9.192 123.664 9.864 123.94 10.44 124.3L9.54 126.514C8.376 125.854 7.212 125.524 6.048 125.524C5.232 125.524 4.626 125.656 4.23 125.92C3.846 126.184 3.654 126.532 3.654 126.964C3.654 127.396 3.876 127.72 4.32 127.936C4.776 128.14 5.466 128.344 6.39 128.548C7.35 128.776 8.136 129.004 8.748 129.232C9.36 129.46 9.882 129.82 10.314 130.312C10.758 130.804 10.98 131.47 10.98 132.31C10.98 133.03 10.776 133.69 10.368 134.29C9.972 134.878 9.372 135.346 8.568 135.694C7.764 136.042 6.786 136.216 5.634 136.216ZM17.4545 136.144C16.4225 136.144 15.4925 135.934 14.6645 135.514C13.8485 135.082 13.2065 134.488 12.7385 133.732C12.2825 132.976 12.0545 132.118 12.0545 131.158C12.0545 130.198 12.2825 129.34 12.7385 128.584C13.2065 127.828 13.8485 127.24 14.6645 126.82C15.4925 126.388 16.4225 126.172 17.4545 126.172C18.4745 126.172 19.3625 126.388 20.1185 126.82C20.8865 127.24 21.4445 127.846 21.7925 128.638L19.6145 129.808C19.1105 128.92 18.3845 128.476 17.4365 128.476C16.7045 128.476 16.0985 128.716 15.6185 129.196C15.1385 129.676 14.8985 130.33 14.8985 131.158C14.8985 131.986 15.1385 132.64 15.6185 133.12C16.0985 133.6 16.7045 133.84 17.4365 133.84C18.3965 133.84 19.1225 133.396 19.6145 132.508L21.7925 133.696C21.4445 134.464 20.8865 135.064 20.1185 135.496C19.3625 135.928 18.4745 136.144 17.4545 136.144ZM27.3153 126.172C28.8153 126.172 29.9673 126.532 30.7713 127.252C31.5753 127.96 31.9773 129.034 31.9773 130.474V136H29.3493V134.794C28.8213 135.694 27.8373 136.144 26.3973 136.144C25.6533 136.144 25.0053 136.018 24.4533 135.766C23.9133 135.514 23.4993 135.166 23.2113 134.722C22.9233 134.278 22.7793 133.774 22.7793 133.21C22.7793 132.31 23.1153 131.602 23.7873 131.086C24.4713 130.57 25.5213 130.312 26.9373 130.312H29.1693C29.1693 129.7 28.9833 129.232 28.6113 128.908C28.2393 128.572 27.6813 128.404 26.9373 128.404C26.4213 128.404 25.9113 128.488 25.4073 128.656C24.9153 128.812 24.4953 129.028 24.1473 129.304L23.1393 127.342C23.6673 126.97 24.2973 126.682 25.0293 126.478C25.7733 126.274 26.5353 126.172 27.3153 126.172ZM27.0993 134.254C27.5793 134.254 28.0053 134.146 28.3773 133.93C28.7493 133.702 29.0133 133.372 29.1693 132.94V131.95H27.2433C26.0913 131.95 25.5153 132.328 25.5153 133.084C25.5153 133.444 25.6533 133.732 25.9293 133.948C26.2173 134.152 26.6073 134.254 27.0993 134.254ZM40.4047 126.172C41.6047 126.172 42.5707 126.532 43.3027 127.252C44.0467 127.972 44.4187 129.04 44.4187 130.456V136H41.6107V130.888C41.6107 130.12 41.4427 129.55 41.1067 129.178C40.7707 128.794 40.2847 128.602 39.6487 128.602C38.9407 128.602 38.3767 128.824 37.9567 129.268C37.5367 129.7 37.3267 130.348 37.3267 131.212V136H34.5187V126.316H37.2007V127.45C37.5727 127.042 38.0347 126.73 38.5867 126.514C39.1387 126.286 39.7447 126.172 40.4047 126.172ZM65.8856 137.35C65.4776 137.854 64.9796 138.238 64.3916 138.502C63.8156 138.766 63.1796 138.898 62.4836 138.898C61.5476 138.898 60.7016 138.694 59.9456 138.286C59.1896 137.89 58.3256 137.182 57.3536 136.162C56.2136 136.018 55.1936 135.652 54.2936 135.064C53.4056 134.476 52.7096 133.72 52.2056 132.796C51.7136 131.86 51.4676 130.828 51.4676 129.7C51.4676 128.464 51.7616 127.354 52.3496 126.37C52.9496 125.374 53.7716 124.594 54.8156 124.03C55.8716 123.466 57.0536 123.184 58.3616 123.184C59.6696 123.184 60.8456 123.466 61.8896 124.03C62.9336 124.594 63.7556 125.374 64.3556 126.37C64.9556 127.354 65.2556 128.464 65.2556 129.7C65.2556 131.164 64.8416 132.448 64.0136 133.552C63.1976 134.656 62.1116 135.424 60.7556 135.856C61.0556 136.168 61.3436 136.39 61.6196 136.522C61.9076 136.666 62.2136 136.738 62.5376 136.738C63.3176 136.738 64.0016 136.426 64.5896 135.802L65.8856 137.35ZM54.4196 129.7C54.4196 130.48 54.5876 131.176 54.9236 131.788C55.2716 132.4 55.7456 132.88 56.3456 133.228C56.9456 133.564 57.6176 133.732 58.3616 133.732C59.1056 133.732 59.7776 133.564 60.3776 133.228C60.9776 132.88 61.4456 132.4 61.7816 131.788C62.1296 131.176 62.3036 130.48 62.3036 129.7C62.3036 128.92 62.1296 128.224 61.7816 127.612C61.4456 127 60.9776 126.526 60.3776 126.19C59.7776 125.842 59.1056 125.668 58.3616 125.668C57.6176 125.668 56.9456 125.842 56.3456 126.19C55.7456 126.526 55.2716 127 54.9236 127.612C54.5876 128.224 54.4196 128.92 54.4196 129.7ZM75.4751 136L73.0451 132.49H72.9011H70.3631V136H67.4471V123.4H72.9011C74.0171 123.4 74.9831 123.586 75.7991 123.958C76.6271 124.33 77.2631 124.858 77.7071 125.542C78.1511 126.226 78.3731 127.036 78.3731 127.972C78.3731 128.908 78.1451 129.718 77.6891 130.402C77.2451 131.074 76.6091 131.59 75.7811 131.95L78.6071 136H75.4751ZM75.4211 127.972C75.4211 127.264 75.1931 126.724 74.7371 126.352C74.2811 125.968 73.6151 125.776 72.7391 125.776H70.3631V130.168H72.7391C73.6151 130.168 74.2811 129.976 74.7371 129.592C75.1931 129.208 75.4211 128.668 75.4211 127.972ZM80.0727 129.808H85.1667V132.058H80.0727V129.808ZM92.2319 136.144C91.1999 136.144 90.2699 135.934 89.4419 135.514C88.6259 135.082 87.9839 134.488 87.5159 133.732C87.0599 132.976 86.8319 132.118 86.8319 131.158C86.8319 130.198 87.0599 129.34 87.5159 128.584C87.9839 127.828 88.6259 127.24 89.4419 126.82C90.2699 126.388 91.1999 126.172 92.2319 126.172C93.2519 126.172 94.1399 126.388 94.8959 126.82C95.6639 127.24 96.2219 127.846 96.5699 128.638L94.3919 129.808C93.8879 128.92 93.1619 128.476 92.2139 128.476C91.4819 128.476 90.8759 128.716 90.3959 129.196C89.9159 129.676 89.6759 130.33 89.6759 131.158C89.6759 131.986 89.9159 132.64 90.3959 133.12C90.8759 133.6 91.4819 133.84 92.2139 133.84C93.1739 133.84 93.8999 133.396 94.3919 132.508L96.5699 133.696C96.2219 134.464 95.6639 135.064 94.8959 135.496C94.1399 135.928 93.2519 136.144 92.2319 136.144ZM102.672 136.144C101.652 136.144 100.734 135.934 99.9176 135.514C99.1136 135.082 98.4836 134.488 98.0276 133.732C97.5716 132.976 97.3436 132.118 97.3436 131.158C97.3436 130.198 97.5716 129.34 98.0276 128.584C98.4836 127.828 99.1136 127.24 99.9176 126.82C100.734 126.388 101.652 126.172 102.672 126.172C103.692 126.172 104.604 126.388 105.408 126.82C106.212 127.24 106.842 127.828 107.298 128.584C107.754 129.34 107.982 130.198 107.982 131.158C107.982 132.118 107.754 132.976 107.298 133.732C106.842 134.488 106.212 135.082 105.408 135.514C104.604 135.934 103.692 136.144 102.672 136.144ZM102.672 133.84C103.392 133.84 103.98 133.6 104.436 133.12C104.904 132.628 105.138 131.974 105.138 131.158C105.138 130.342 104.904 129.694 104.436 129.214C103.98 128.722 103.392 128.476 102.672 128.476C101.952 128.476 101.358 128.722 100.89 129.214C100.422 129.694 100.188 130.342 100.188 131.158C100.188 131.974 100.422 132.628 100.89 133.12C101.358 133.6 101.952 133.84 102.672 133.84ZM119.723 122.644V136H117.041V134.884C116.345 135.724 115.337 136.144 114.017 136.144C113.105 136.144 112.277 135.94 111.533 135.532C110.801 135.124 110.225 134.542 109.805 133.786C109.385 133.03 109.175 132.154 109.175 131.158C109.175 130.162 109.385 129.286 109.805 128.53C110.225 127.774 110.801 127.192 111.533 126.784C112.277 126.376 113.105 126.172 114.017 126.172C115.253 126.172 116.219 126.562 116.915 127.342V122.644H119.723ZM114.503 133.84C115.211 133.84 115.799 133.6 116.267 133.12C116.735 132.628 116.969 131.974 116.969 131.158C116.969 130.342 116.735 129.694 116.267 129.214C115.799 128.722 115.211 128.476 114.503 128.476C113.783 128.476 113.189 128.722 112.721 129.214C112.253 129.694 112.019 130.342 112.019 131.158C112.019 131.974 112.253 132.628 112.721 133.12C113.189 133.6 113.783 133.84 114.503 133.84ZM131.807 131.194C131.807 131.23 131.789 131.482 131.753 131.95H124.427C124.559 132.55 124.871 133.024 125.363 133.372C125.855 133.72 126.467 133.894 127.199 133.894C127.703 133.894 128.147 133.822 128.531 133.678C128.927 133.522 129.293 133.282 129.629 132.958L131.123 134.578C130.211 135.622 128.879 136.144 127.127 136.144C126.035 136.144 125.069 135.934 124.229 135.514C123.389 135.082 122.741 134.488 122.285 133.732C121.829 132.976 121.601 132.118 121.601 131.158C121.601 130.21 121.823 129.358 122.267 128.602C122.723 127.834 123.341 127.24 124.121 126.82C124.913 126.388 125.795 126.172 126.767 126.172C127.715 126.172 128.573 126.376 129.341 126.784C130.109 127.192 130.709 127.78 131.141 128.548C131.585 129.304 131.807 130.186 131.807 131.194ZM126.785 128.296C126.149 128.296 125.615 128.476 125.183 128.836C124.751 129.196 124.487 129.688 124.391 130.312H129.161C129.065 129.7 128.801 129.214 128.369 128.854C127.937 128.482 127.409 128.296 126.785 128.296Z" fill="white"/>
</svg>
